<svg xmlns="http://www.w3.org/2000/svg" xmlns:xlink="http://www.w3.org/1999/xlink" width="1270" height="776.43"><rect width="1270" height="776.43" rx="5" ry="5" class="a"/><svg y="0%" x="0%"><circle cx="20" cy="20" r="6" fill="#ff5f58"/><circle cx="40" cy="20" r="6" fill="#ffbd2e"/><circle cx="60" cy="20" r="6" fill="#18c132"/></svg><svg height="716.43" viewBox="0 0 123 71.643" width="1230" x="15" xmlns="http://www.w3.org/2000/svg" xmlns:xlink="http://www.w3.org/1999/xlink" y="50"><style>@keyframes k{0%{transform:translateX(0)}3.1%{transform:translateX(-246px)}22.3%{transform:translateX(-369px)}22.9%{transform:translateX(-492px)}23.9%{transform:translateX(-615px)}24.9%{transform:translateX(-738px)}25.7%{transform:translateX(-861px)}26.4%{transform:translateX(-984px)}27.2%{transform:translateX(-1107px)}29.1%{transform:translateX(-1230px)}29.9%{transform:translateX(-1353px)}31.8%{transform:translateX(-1476px)}33%{transform:translateX(-1599px)}34.1%{transform:translateX(-1722px)}35.8%{transform:translateX(-1845px)}37.7%{transform:translateX(-1968px)}39%{transform:translateX(-2091px)}40.5%{transform:translateX(-2214px)}41.7%{transform:translateX(-2337px)}42.4%{transform:translateX(-2460px)}46.6%{transform:translateX(-2583px)}46.8%{transform:translateX(-2706px)}54%{transform:translateX(-2829px)}56.4%{transform:translateX(-3075px)}59.9%{transform:translateX(-3321px)}60%{transform:translateX(-3690px)}60.4%{transform:translateX(-3813px)}61.3%{transform:translateX(-3936px)}62.1%{transform:translateX(-4059px)}63%{transform:translateX(-4182px)}63.8%{transform:translateX(-4305px)}64.7%{transform:translateX(-4428px)}65.3%{transform:translateX(-4551px)}65.5%{transform:translateX(-4674px)}66.4%{transform:translateX(-4797px)}67.3%{transform:translateX(-4920px)}68.1%{transform:translateX(-5043px)}68.9%{transform:translateX(-5166px)}69.8%{transform:translateX(-5289px)}70.7%{transform:translateX(-5412px)}71.5%{transform:translateX(-5535px)}72.4%{transform:translateX(-5781px)}73.2%{transform:translateX(-5904px)}74.1%{transform:translateX(-6027px)}74.9%{transform:translateX(-6150px)}75.8%{transform:translateX(-6273px)}76.6%{transform:translateX(-6519px)}77.2%{transform:translateX(-6642px)}78%{transform:translateX(-6765px)}78.8%{transform:translateX(-6888px)}79.6%{transform:translateX(-7011px)}80.4%{transform:translateX(-7134px)}81.2%{transform:translateX(-7257px)}82%{transform:translateX(-7380px)}82.8%{transform:translateX(-7626px)}83.3%{transform:translateX(-7872px)}83.6%{transform:translateX(-8118px)}84%{transform:translateX(-8487px)}84.1%{transform:translateX(-8610px)}84.2%{transform:translateX(-9102px)}84.8%{transform:translateX(-9348px)}84.9%{transform:translateX(-9471px)}85.4%{transform:translateX(-9594px)}85.5%{transform:translateX(-9717px)}85.6%{transform:translateX(-9840px)}86.8%{transform:translateX(-10086px)}to{transform:translateX(-10209px)}}.a{fill:#282d35}.f{fill:#a8cc8c;font-weight:700}.f,.g,.h{white-space:pre}.g{fill:#b9bfca;font-weight:700}.h{fill:#b9c0cb}</style><g font-family="Monaco,Consolas,Menlo,'Bitstream Vera Sans Mono','Powerline Symbols',monospace" font-size="1.67"><defs><symbol id="1"><text y="1.67" class="f">[mike@ouroboros</text><text x="16.032" y="1.67" class="g">~</text><text x="17.034" y="1.67" class="f">]$</text></symbol><symbol id="2"><text y="1.67" class="f">[mike@ouroboros</text><text x="16.032" y="1.67" class="g">~</text><text x="17.034" y="1.67" class="f">]$</text><text x="20.04" y="1.67" class="h">docker</text></symbol><symbol id="3"><text y="1.67" class="f">[mike@ouroboros</text><text x="16.032" y="1.67" class="g">~</text><text x="17.034" y="1.67" class="f">]$</text><text x="20.04" y="1.67" class="h">docker</text><text x="27.054" y="1.67" class="h">pull</text></symbol><symbol id="4"><text y="1.67" class="f">[mike@ouroboros</text><text x="16.032" y="1.67" class="g">~</text><text x="17.034" y="1.67" class="f">]$</text><text x="20.04" y="1.67" class="h">docker</text><text x="27.054" y="1.67" class="h">pull</text><text x="32.064" y="1.67" class="h">ubuntu</text></symbol><symbol id="5"><text y="1.67" class="h">Using</text><text x="6.012" y="1.67" class="h">default</text><text x="14.028" y="1.67" class="h">tag:</text><text x="19.038" y="1.67" class="h">latest</text></symbol><symbol id="6"><text y="1.67" class="h">latest:</text><text x="8.016" y="1.67" class="h">Pulling</text><text x="16.032" y="1.67" class="h">from</text><text x="21.042" y="1.67" class="h">library/ubuntu</text></symbol><symbol id="7"><text y="1.67" class="h">5bed26d33875:</text></symbol><symbol id="8"><text y="1.67" class="h">5bed26d33875:</text><text x="14.028" y="1.67" class="h">Pulling</text><text x="22.044" y="1.67" class="h">fs</text><text x="25.05" y="1.67" class="h">layer</text></symbol><symbol id="9"><text y="1.67" class="h">f11b29a9c730:</text><text x="14.028" y="1.67" class="h">Pulling</text><text x="22.044" y="1.67" class="h">fs</text><text x="25.05" y="1.67" class="h">layer</text></symbol><symbol id="10"><text y="1.67" class="h">78bf9a5ad49e:</text><text x="14.028" y="1.67" class="h">Waiting</text></symbol><symbol id="11"><text y="1.67" class="h">930bda195c84:</text><text x="14.028" y="1.67" class="h">Download</text><text x="23.046" y="1.67" class="h">complete</text></symbol><symbol id="12"><text y="1.67" class="h">f11b29a9c730:</text></symbol><symbol id="13"><text y="1.67" class="h">f11b29a9c730:</text><text x="14.028" y="1.67" class="h">Download</text><text x="23.046" y="1.67" class="h">complete</text></symbol><symbol id="14"><text y="1.67" class="h">5bed26d33875:</text><text x="14.028" y="1.67" class="h">Downloading</text><text x="26.052" y="1.67" class="h">[=============&gt;</text><text x="78.156" y="1.67" class="h">]</text><text x="81.162" y="1.67" class="h">7.207MB/26.69MB</text></symbol><symbol id="15"><text y="1.67" class="h">78bf9a5ad49e:</text><text x="14.028" y="1.67" class="h">Download</text><text x="23.046" y="1.67" class="h">complete</text></symbol><symbol id="16"><text y="1.67" class="h">5bed26d33875:</text><text x="14.028" y="1.67" class="h">Pull</text><text x="19.038" y="1.67" class="h">complete</text></symbol><symbol id="17"><text y="1.67" class="h">f11b29a9c730:</text><text x="14.028" y="1.67" class="h">Extracting</text><text x="25.05" y="1.67" class="h">[==================================================&gt;]</text><text x="80.16" y="1.67" class="h">35.37kB/35.37kB</text></symbol><symbol id="18"><text y="1.67" class="h">f11b29a9c730:</text><text x="14.028" y="1.67" class="h">Pull</text><text x="19.038" y="1.67" class="h">complete</text></symbol><symbol id="19"><text y="1.67" class="h">930bda195c84:</text><text x="14.028" y="1.67" class="h">Extracting</text><text x="25.05" y="1.67" class="h">[==================================================&gt;]</text><text x="83.166" y="1.67" class="h">848B/848B</text></symbol><symbol id="20"><text y="1.67" class="h">930bda195c84:</text><text x="14.028" y="1.67" class="h">Pull</text><text x="19.038" y="1.67" class="h">complete</text></symbol><symbol id="21"><text y="1.67" class="h">78bf9a5ad49e:</text><text x="14.028" y="1.67" class="h">Extracting</text><text x="25.05" y="1.67" class="h">[==================================================&gt;]</text><text x="83.166" y="1.67" class="h">162B/162B</text></symbol><symbol id="22"><text y="1.67" class="h">78bf9a5ad49e:</text><text x="14.028" y="1.67" class="h">Pull</text><text x="19.038" y="1.67" class="h">complete</text></symbol><symbol id="23"><text y="1.67" class="h">Digest:</text><text x="8.016" y="1.67" class="h">sha256:bec5a2727be7fff3d308193cfde3491f8fba1a2ba392b7546b43a051853a341d</text></symbol><symbol id="24"><text y="1.67" class="h">Status:</text><text x="8.016" y="1.67" class="h">Downloaded</text><text x="19.038" y="1.67" class="h">newer</text><text x="25.05" y="1.67" class="h">image</text><text x="31.062" y="1.67" class="h">for</text><text x="35.07" y="1.67" class="h">ubuntu:latest</text></symbol><symbol id="25"><text y="1.67" class="h">docker.io/library/ubuntu:latest</text></symbol><symbol id="a"><path fill="transparent" d="M0 0h123v33H0z"/></symbol><symbol id="b"><path fill="#6f7683" d="M0 0h1.102v2.171H0z"/></symbol></defs><path class="a" d="M0 0h123v71.643H0z"/><g style="animation-duration:13.066958s;animation-iteration-count:infinite;animation-name:k;animation-timing-function:steps(1,end)"><svg width="10332"><svg><use xlink:href="#a"/><use xlink:href="#b" x="-.004"/></svg><svg x="123"><use xlink:href="#a"/><use xlink:href="#b" x="-.004"/></svg><svg x="246"><use xlink:href="#a"/><use xlink:href="#b" x="19.996"/><use xlink:href="#1"/></svg><svg x="369"><use xlink:href="#a"/><use xlink:href="#b" x="20.996"/><text y="1.67" class="f">[mike@ouroboros</text><text x="16.032" y="1.67" class="g">~</text><text x="17.034" y="1.67" class="f">]$</text><text x="20.04" y="1.67" class="h">d</text></svg><svg x="492"><use xlink:href="#a"/><use xlink:href="#b" x="21.996"/><text y="1.67" class="f">[mike@ouroboros</text><text x="16.032" y="1.67" class="g">~</text><text x="17.034" y="1.67" class="f">]$</text><text x="20.04" y="1.67" class="h">do</text></svg><svg x="615"><use xlink:href="#a"/><use xlink:href="#b" x="22.996"/><text y="1.67" class="f">[mike@ouroboros</text><text x="16.032" y="1.67" class="g">~</text><text x="17.034" y="1.67" class="f">]$</text><text x="20.04" y="1.67" class="h">doc</text></svg><svg x="738"><use xlink:href="#a"/><use xlink:href="#b" x="23.996"/><text y="1.67" class="f">[mike@ouroboros</text><text x="16.032" y="1.67" class="g">~</text><text x="17.034" y="1.67" class="f">]$</text><text x="20.04" y="1.67" class="h">dock</text></svg><svg x="861"><use xlink:href="#a"/><use xlink:href="#b" x="24.996"/><text y="1.67" class="f">[mike@ouroboros</text><text x="16.032" y="1.67" class="g">~</text><text x="17.034" y="1.67" class="f">]$</text><text x="20.04" y="1.67" class="h">docke</text></svg><svg x="984"><use xlink:href="#a"/><use xlink:href="#b" x="25.996"/><use xlink:href="#2"/></svg><svg x="1107"><use xlink:href="#a"/><use xlink:href="#b" x="26.996"/><use xlink:href="#2"/></svg><svg x="1230"><use xlink:href="#a"/><use xlink:href="#b" x="27.996"/><text y="1.67" class="f">[mike@ouroboros</text><text x="16.032" y="1.67" class="g">~</text><text x="17.034" y="1.67" class="f">]$</text><text x="20.04" y="1.67" class="h">docker</text><text x="27.054" y="1.67" class="h">p</text></svg><svg x="1353"><use xlink:href="#a"/><use xlink:href="#b" x="28.996"/><text y="1.67" class="f">[mike@ouroboros</text><text x="16.032" y="1.67" class="g">~</text><text x="17.034" y="1.67" class="f">]$</text><text x="20.04" y="1.67" class="h">docker</text><text x="27.054" y="1.67" class="h">pu</text></svg><svg x="1476"><use xlink:href="#a"/><use xlink:href="#b" x="29.996"/><text y="1.67" class="f">[mike@ouroboros</text><text x="16.032" y="1.67" class="g">~</text><text x="17.034" y="1.67" class="f">]$</text><text x="20.04" y="1.67" class="h">docker</text><text x="27.054" y="1.67" class="h">pul</text></svg><svg x="1599"><use xlink:href="#a"/><use xlink:href="#b" x="30.996"/><use xlink:href="#3"/></svg><svg x="1722"><use xlink:href="#a"/><use xlink:href="#b" x="31.996"/><use xlink:href="#3"/></svg><svg x="1845"><use xlink:href="#a"/><use xlink:href="#b" x="32.996"/><text y="1.67" class="f">[mike@ouroboros</text><text x="16.032" y="1.67" class="g">~</text><text x="17.034" y="1.67" class="f">]$</text><text x="20.04" y="1.67" class="h">docker</text><text x="27.054" y="1.67" class="h">pull</text><text x="32.064" y="1.67" class="h">u</text></svg><svg x="1968"><use xlink:href="#a"/><use xlink:href="#b" x="33.996"/><text y="1.67" class="f">[mike@ouroboros</text><text x="16.032" y="1.67" class="g">~</text><text x="17.034" y="1.67" class="f">]$</text><text x="20.04" y="1.67" class="h">docker</text><text x="27.054" y="1.67" class="h">pull</text><text x="32.064" y="1.67" class="h">ub</text></svg><svg x="2091"><use xlink:href="#a"/><use xlink:href="#b" x="34.996"/><text y="1.67" class="f">[mike@ouroboros</text><text x="16.032" y="1.67" class="g">~</text><text x="17.034" y="1.67" class="f">]$</text><text x="20.04" y="1.67" class="h">docker</text><text x="27.054" y="1.67" class="h">pull</text><text x="32.064" y="1.67" class="h">ubu</text></svg><svg x="2214"><use xlink:href="#a"/><use xlink:href="#b" x="35.996"/><text y="1.67" class="f">[mike@ouroboros</text><text x="16.032" y="1.67" class="g">~</text><text x="17.034" y="1.67" class="f">]$</text><text x="20.04" y="1.67" class="h">docker</text><text x="27.054" y="1.67" class="h">pull</text><text x="32.064" y="1.67" class="h">ubun</text></svg><svg x="2337"><use xlink:href="#a"/><use xlink:href="#b" x="36.996"/><text y="1.67" class="f">[mike@ouroboros</text><text x="16.032" y="1.67" class="g">~</text><text x="17.034" y="1.67" class="f">]$</text><text x="20.04" y="1.67" class="h">docker</text><text x="27.054" y="1.67" class="h">pull</text><text x="32.064" y="1.67" class="h">ubunt</text></svg><svg x="2460"><use xlink:href="#a"/><use xlink:href="#b" x="37.996"/><use xlink:href="#4"/></svg><svg x="2583"><use xlink:href="#a"/><use xlink:href="#b" x="-.004" y="2.146"/><use xlink:href="#4"/></svg><svg x="2706"><use xlink:href="#a"/><use xlink:href="#b" x="-.004" y="4.317"/><use xlink:href="#4"/><use xlink:href="#5" y="2.171"/></svg><svg x="2829"><use xlink:href="#a"/><use xlink:href="#b" x="-.004" y="6.488"/><use xlink:href="#4"/><use xlink:href="#5" y="2.171"/><use xlink:href="#6" y="4.342"/></svg><svg x="2952"><use xlink:href="#a"/><use xlink:href="#b" x="13.996" y="6.488"/><use xlink:href="#4"/><use xlink:href="#5" y="2.171"/><use xlink:href="#6" y="4.342"/><use xlink:href="#7" y="6.513"/></svg><svg x="3075"><use xlink:href="#a"/><use xlink:href="#b" x="-.004" y="15.172"/><use xlink:href="#4"/><use xlink:href="#5" y="2.171"/><use xlink:href="#6" y="4.342"/><use xlink:href="#8" y="6.513"/><use xlink:href="#9" y="8.684"/><text y="12.525" class="h">930bda195c84:</text><text x="14.028" y="12.525" class="h">Pulling</text><text x="22.044" y="12.525" class="h">fs</text><text x="25.05" y="12.525" class="h">layer</text><use xlink:href="#10" y="13.026"/></svg><svg x="3198"><use xlink:href="#a"/><use xlink:href="#b" x="-.004" y="15.172"/><use xlink:href="#4"/><use xlink:href="#5" y="2.171"/><use xlink:href="#6" y="4.342"/><use xlink:href="#8" y="6.513"/><use xlink:href="#9" y="8.684"/><text y="12.525" class="h">930bda195c84:</text><text x="14.028" y="12.525" class="h">Downloading</text><text x="26.052" y="12.525" class="h">[===========================&gt;</text><text x="78.156" y="12.525" class="h">]</text><text x="84.168" y="12.525" class="h">474B/848B</text><use xlink:href="#10" y="13.026"/></svg><svg x="3321"><use xlink:href="#a"/><use xlink:href="#b" x="-.004" y="15.172"/><use xlink:href="#4"/><use xlink:href="#5" y="2.171"/><use xlink:href="#6" y="4.342"/><use xlink:href="#8" y="6.513"/><use xlink:href="#9" y="8.684"/><use xlink:href="#11" y="10.855"/><use xlink:href="#10" y="13.026"/></svg><svg x="3444"><use xlink:href="#a"/><use xlink:href="#b" x="-.004" y="15.172"/><use xlink:href="#4"/><use xlink:href="#5" y="2.171"/><use xlink:href="#6" y="4.342"/><use xlink:href="#8" y="6.513"/><text y="10.354" class="h">f11b29a9c730:</text><text x="14.028" y="10.354" class="h">Downloading</text><text x="26.052" y="10.354" class="h">[&gt;</text><text x="78.156" y="10.354" class="h">]</text><text x="84.168" y="10.354" class="h">472B/35.37kB</text><use xlink:href="#11" y="10.855"/><use xlink:href="#10" y="13.026"/></svg><svg x="3567"><use xlink:href="#a"/><use xlink:href="#b" x="13.996" y="8.659"/><use xlink:href="#4"/><use xlink:href="#5" y="2.171"/><use xlink:href="#6" y="4.342"/><use xlink:href="#8" y="6.513"/><use xlink:href="#12" y="8.684"/><use xlink:href="#11" y="10.855"/><use xlink:href="#10" y="13.026"/></svg><svg x="3690"><use xlink:href="#a"/><use xlink:href="#b" x="-.004" y="15.172"/><use xlink:href="#4"/><use xlink:href="#5" y="2.171"/><use xlink:href="#6" y="4.342"/><use xlink:href="#8" y="6.513"/><use xlink:href="#13" y="8.684"/><use xlink:href="#11" y="10.855"/><use xlink:href="#10" y="13.026"/></svg><svg x="3813"><use xlink:href="#a"/><use xlink:href="#b" x="-.004" y="15.172"/><use xlink:href="#4"/><use xlink:href="#5" y="2.171"/><use xlink:href="#6" y="4.342"/><text y="8.183" class="h">5bed26d33875:</text><text x="14.028" y="8.183" class="h">Downloading</text><text x="26.052" y="8.183" class="h">[&gt;</text><text x="78.156" y="8.183" class="h">]</text><text x="81.162" y="8.183" class="h">281.8kB/26.69MB</text><use xlink:href="#13" y="8.684"/><use xlink:href="#11" y="10.855"/><use xlink:href="#10" y="13.026"/></svg><svg x="3936"><use xlink:href="#a"/><use xlink:href="#b" x="-.004" y="15.172"/><use xlink:href="#4"/><use xlink:href="#5" y="2.171"/><use xlink:href="#6" y="4.342"/><text y="8.183" class="h">5bed26d33875:</text><text x="14.028" y="8.183" class="h">Downloading</text><text x="26.052" y="8.183" class="h">[===&gt;</text><text x="78.156" y="8.183" class="h">]</text><text x="81.162" y="8.183" class="h">1.661MB/26.69MB</text><use xlink:href="#13" y="8.684"/><use xlink:href="#11" y="10.855"/><use xlink:href="#10" y="13.026"/></svg><svg x="4059"><use xlink:href="#a"/><use xlink:href="#b" x="-.004" y="15.172"/><use xlink:href="#4"/><use xlink:href="#5" y="2.171"/><use xlink:href="#6" y="4.342"/><text y="8.183" class="h">5bed26d33875:</text><text x="14.028" y="8.183" class="h">Downloading</text><text x="26.052" y="8.183" class="h">[=====&gt;</text><text x="78.156" y="8.183" class="h">]</text><text x="81.162" y="8.183" class="h">3.046MB/26.69MB</text><use xlink:href="#13" y="8.684"/><use xlink:href="#11" y="10.855"/><use xlink:href="#10" y="13.026"/></svg><svg x="4182"><use xlink:href="#a"/><use xlink:href="#b" x="-.004" y="15.172"/><use xlink:href="#4"/><use xlink:href="#5" y="2.171"/><use xlink:href="#6" y="4.342"/><text y="8.183" class="h">5bed26d33875:</text><text x="14.028" y="8.183" class="h">Downloading</text><text x="26.052" y="8.183" class="h">[========&gt;</text><text x="78.156" y="8.183" class="h">]</text><text x="81.162" y="8.183" class="h">4.438MB/26.69MB</text><use xlink:href="#13" y="8.684"/><use xlink:href="#11" y="10.855"/><use xlink:href="#10" y="13.026"/></svg><svg x="4305"><use xlink:href="#a"/><use xlink:href="#b" x="-.004" y="15.172"/><use xlink:href="#4"/><use xlink:href="#5" y="2.171"/><use xlink:href="#6" y="4.342"/><text y="8.183" class="h">5bed26d33875:</text><text x="14.028" y="8.183" class="h">Downloading</text><text x="26.052" y="8.183" class="h">[==========&gt;</text><text x="78.156" y="8.183" class="h">]</text><text x="81.162" y="8.183" class="h">5.823MB/26.69MB</text><use xlink:href="#13" y="8.684"/><use xlink:href="#11" y="10.855"/><use xlink:href="#10" y="13.026"/></svg><svg x="4428"><use xlink:href="#a"/><use xlink:href="#b" x="-.004" y="15.172"/><use xlink:href="#4"/><use xlink:href="#5" y="2.171"/><use xlink:href="#6" y="4.342"/><use xlink:href="#14" y="6.513"/><use xlink:href="#13" y="8.684"/><use xlink:href="#11" y="10.855"/><use xlink:href="#10" y="13.026"/></svg><svg x="4551"><use xlink:href="#a"/><use xlink:href="#b" x="-.004" y="15.172"/><use xlink:href="#4"/><use xlink:href="#5" y="2.171"/><use xlink:href="#6" y="4.342"/><use xlink:href="#14" y="6.513"/><use xlink:href="#13" y="8.684"/><use xlink:href="#11" y="10.855"/><use xlink:href="#15" y="13.026"/></svg><svg x="4674"><use xlink:href="#a"/><use xlink:href="#b" x="-.004" y="15.172"/><use xlink:href="#4"/><use xlink:href="#5" y="2.171"/><use xlink:href="#6" y="4.342"/><text y="8.183" class="h">5bed26d33875:</text><text x="14.028" y="8.183" class="h">Downloading</text><text x="26.052" y="8.183" class="h">[================&gt;</text><text x="78.156" y="8.183" class="h">]</text><text x="81.162" y="8.183" class="h">8.604MB/26.69MB</text><use xlink:href="#13" y="8.684"/><use xlink:href="#11" y="10.855"/><use xlink:href="#15" y="13.026"/></svg><svg x="4797"><use xlink:href="#a"/><use xlink:href="#b" x="-.004" y="15.172"/><use xlink:href="#4"/><use xlink:href="#5" y="2.171"/><use xlink:href="#6" y="4.342"/><text y="8.183" class="h">5bed26d33875:</text><text x="14.028" y="8.183" class="h">Downloading</text><text x="26.052" y="8.183" class="h">[==================&gt;</text><text x="78.156" y="8.183" class="h">]</text><text x="81.162" y="8.183" class="h">9.997MB/26.69MB</text><use xlink:href="#13" y="8.684"/><use xlink:href="#11" y="10.855"/><use xlink:href="#15" y="13.026"/></svg><svg x="4920"><use xlink:href="#a"/><use xlink:href="#b" x="-.004" y="15.172"/><use xlink:href="#4"/><use xlink:href="#5" y="2.171"/><use xlink:href="#6" y="4.342"/><text y="8.183" class="h">5bed26d33875:</text><text x="14.028" y="8.183" class="h">Downloading</text><text x="26.052" y="8.183" class="h">[=====================&gt;</text><text x="78.156" y="8.183" class="h">]</text><text x="81.162" y="8.183" class="h">11.39MB/26.69MB</text><use xlink:href="#13" y="8.684"/><use xlink:href="#11" y="10.855"/><use xlink:href="#15" y="13.026"/></svg><svg x="5043"><use xlink:href="#a"/><use xlink:href="#b" x="-.004" y="15.172"/><use xlink:href="#4"/><use xlink:href="#5" y="2.171"/><use xlink:href="#6" y="4.342"/><text y="8.183" class="h">5bed26d33875:</text><text x="14.028" y="8.183" class="h">Downloading</text><text x="26.052" y="8.183" class="h">[=======================&gt;</text><text x="78.156" y="8.183" class="h">]</text><text x="81.162" y="8.183" class="h">12.77MB/26.69MB</text><use xlink:href="#13" y="8.684"/><use xlink:href="#11" y="10.855"/><use xlink:href="#15" y="13.026"/></svg><svg x="5166"><use xlink:href="#a"/><use xlink:href="#b" x="-.004" y="15.172"/><use xlink:href="#4"/><use xlink:href="#5" y="2.171"/><use xlink:href="#6" y="4.342"/><text y="8.183" class="h">5bed26d33875:</text><text x="14.028" y="8.183" class="h">Downloading</text><text x="26.052" y="8.183" class="h">[==========================&gt;</text><text x="78.156" y="8.183" class="h">]</text><text x="81.162" y="8.183" class="h">14.15MB/26.69MB</text><use xlink:href="#13" y="8.684"/><use xlink:href="#11" y="10.855"/><use xlink:href="#15" y="13.026"/></svg><svg x="5289"><use xlink:href="#a"/><use xlink:href="#b" x="-.004" y="15.172"/><use xlink:href="#4"/><use xlink:href="#5" y="2.171"/><use xlink:href="#6" y="4.342"/><text y="8.183" class="h">5bed26d33875:</text><text x="14.028" y="8.183" class="h">Downloading</text><text x="26.052" y="8.183" class="h">[=============================&gt;</text><text x="78.156" y="8.183" class="h">]</text><text x="81.162" y="8.183" class="h">15.54MB/26.69MB</text><use xlink:href="#13" y="8.684"/><use xlink:href="#11" y="10.855"/><use xlink:href="#15" y="13.026"/></svg><svg x="5412"><use xlink:href="#a"/><use xlink:href="#b" x="-.004" y="15.172"/><use xlink:href="#4"/><use xlink:href="#5" y="2.171"/><use xlink:href="#6" y="4.342"/><text y="8.183" class="h">5bed26d33875:</text><text x="14.028" y="8.183" class="h">Downloading</text><text x="26.052" y="8.183" class="h">[===============================&gt;</text><text x="78.156" y="8.183" class="h">]</text><text x="81.162" y="8.183" class="h">16.93MB/26.69MB</text><use xlink:href="#13" y="8.684"/><use xlink:href="#11" y="10.855"/><use xlink:href="#15" y="13.026"/></svg><svg x="5535"><use xlink:href="#a"/><use xlink:href="#b" x="-.004" y="15.172"/><use xlink:href="#4"/><use xlink:href="#5" y="2.171"/><use xlink:href="#6" y="4.342"/><text y="8.183" class="h">5bed26d33875:</text><text x="14.028" y="8.183" class="h">Downloading</text><text x="26.052" y="8.183" class="h">[==================================&gt;</text><text x="78.156" y="8.183" class="h">]</text><text x="81.162" y="8.183" class="h">18.32MB/26.69MB</text><use xlink:href="#13" y="8.684"/><use xlink:href="#11" y="10.855"/><use xlink:href="#15" y="13.026"/></svg><svg x="5658"><use xlink:href="#a"/><use xlink:href="#b" x="13.996" y="6.488"/><use xlink:href="#4"/><use xlink:href="#5" y="2.171"/><use xlink:href="#6" y="4.342"/><use xlink:href="#7" y="6.513"/><use xlink:href="#13" y="8.684"/><use xlink:href="#11" y="10.855"/><use xlink:href="#15" y="13.026"/></svg><svg x="5781"><use xlink:href="#a"/><use xlink:href="#b" x="-.004" y="15.172"/><use xlink:href="#4"/><use xlink:href="#5" y="2.171"/><use xlink:href="#6" y="4.342"/><text y="8.183" class="h">5bed26d33875:</text><text x="14.028" y="8.183" class="h">Downloading</text><text x="26.052" y="8.183" class="h">[====================================&gt;</text><text x="78.156" y="8.183" class="h">]</text><text x="82.164" y="8.183" class="h">19.7MB/26.69MB</text><use xlink:href="#13" y="8.684"/><use xlink:href="#11" y="10.855"/><use xlink:href="#15" y="13.026"/></svg><svg x="5904"><use xlink:href="#a"/><use xlink:href="#b" x="-.004" y="15.172"/><use xlink:href="#4"/><use xlink:href="#5" y="2.171"/><use xlink:href="#6" y="4.342"/><text y="8.183" class="h">5bed26d33875:</text><text x="14.028" y="8.183" class="h">Downloading</text><text x="26.052" y="8.183" class="h">[=======================================&gt;</text><text x="78.156" y="8.183" class="h">]</text><text x="82.164" y="8.183" class="h">21.1MB/26.69MB</text><use xlink:href="#13" y="8.684"/><use xlink:href="#11" y="10.855"/><use xlink:href="#15" y="13.026"/></svg><svg x="6027"><use xlink:href="#a"/><use xlink:href="#b" x="-.004" y="15.172"/><use xlink:href="#4"/><use xlink:href="#5" y="2.171"/><use xlink:href="#6" y="4.342"/><text y="8.183" class="h">5bed26d33875:</text><text x="14.028" y="8.183" class="h">Downloading</text><text x="26.052" y="8.183" class="h">[==========================================&gt;</text><text x="78.156" y="8.183" class="h">]</text><text x="81.162" y="8.183" class="h">22.49MB/26.69MB</text><use xlink:href="#13" y="8.684"/><use xlink:href="#11" y="10.855"/><use xlink:href="#15" y="13.026"/></svg><svg x="6150"><use xlink:href="#a"/><use xlink:href="#b" x="-.004" y="15.172"/><use xlink:href="#4"/><use xlink:href="#5" y="2.171"/><use xlink:href="#6" y="4.342"/><text y="8.183" class="h">5bed26d33875:</text><text x="14.028" y="8.183" class="h">Downloading</text><text x="26.052" y="8.183" class="h">[============================================&gt;</text><text x="78.156" y="8.183" class="h">]</text><text x="81.162" y="8.183" class="h">23.88MB/26.69MB</text><use xlink:href="#13" y="8.684"/><use xlink:href="#11" y="10.855"/><use xlink:href="#15" y="13.026"/></svg><svg x="6273"><use xlink:href="#a"/><use xlink:href="#b" x="-.004" y="15.172"/><use xlink:href="#4"/><use xlink:href="#5" y="2.171"/><use xlink:href="#6" y="4.342"/><text y="8.183" class="h">5bed26d33875:</text><text x="14.028" y="8.183" class="h">Downloading</text><text x="26.052" y="8.183" class="h">[===============================================&gt;</text><text x="78.156" y="8.183" class="h">]</text><text x="81.162" y="8.183" class="h">25.27MB/26.69MB</text><use xlink:href="#13" y="8.684"/><use xlink:href="#11" y="10.855"/><use xlink:href="#15" y="13.026"/></svg><svg x="6396"><use xlink:href="#a"/><use xlink:href="#b" x="-.004" y="15.172"/><use xlink:href="#4"/><use xlink:href="#5" y="2.171"/><use xlink:href="#6" y="4.342"/><text y="8.183" class="h">5bed26d33875:</text><text x="14.028" y="8.183" class="h">Downloading</text><text x="26.052" y="8.183" class="h">[=================================================&gt;</text><text x="78.156" y="8.183" class="h">]</text><text x="81.162" y="8.183" class="h">26.65MB/26.69MB</text><use xlink:href="#13" y="8.684"/><use xlink:href="#11" y="10.855"/><use xlink:href="#15" y="13.026"/></svg><svg x="6519"><use xlink:href="#a"/><use xlink:href="#b" x="-.004" y="15.172"/><use xlink:href="#4"/><use xlink:href="#5" y="2.171"/><use xlink:href="#6" y="4.342"/><text y="8.183" class="h">5bed26d33875:</text><text x="14.028" y="8.183" class="h">Download</text><text x="23.046" y="8.183" class="h">complete</text><use xlink:href="#13" y="8.684"/><use xlink:href="#11" y="10.855"/><use xlink:href="#15" y="13.026"/></svg><svg x="6642"><use xlink:href="#a"/><use xlink:href="#b" x="-.004" y="15.172"/><use xlink:href="#4"/><use xlink:href="#5" y="2.171"/><use xlink:href="#6" y="4.342"/><text y="8.183" class="h">5bed26d33875:</text><text x="14.028" y="8.183" class="h">Extracting</text><text x="25.05" y="8.183" class="h">[&gt;</text><text x="77.154" y="8.183" class="h">]</text><text x="80.16" y="8.183" class="h">294.9kB/26.69MB</text><use xlink:href="#13" y="8.684"/><use xlink:href="#11" y="10.855"/><use xlink:href="#15" y="13.026"/></svg><svg x="6765"><use xlink:href="#a"/><use xlink:href="#b" x="-.004" y="15.172"/><use xlink:href="#4"/><use xlink:href="#5" y="2.171"/><use xlink:href="#6" y="4.342"/><text y="8.183" class="h">5bed26d33875:</text><text x="14.028" y="8.183" class="h">Extracting</text><text x="25.05" y="8.183" class="h">[=======&gt;</text><text x="77.154" y="8.183" class="h">]</text><text x="80.16" y="8.183" class="h">3.834MB/26.69MB</text><use xlink:href="#13" y="8.684"/><use xlink:href="#11" y="10.855"/><use xlink:href="#15" y="13.026"/></svg><svg x="6888"><use xlink:href="#a"/><use xlink:href="#b" x="-.004" y="15.172"/><use xlink:href="#4"/><use xlink:href="#5" y="2.171"/><use xlink:href="#6" y="4.342"/><text y="8.183" class="h">5bed26d33875:</text><text x="14.028" y="8.183" class="h">Extracting</text><text x="25.05" y="8.183" class="h">[==============&gt;</text><text x="77.154" y="8.183" class="h">]</text><text x="80.16" y="8.183" class="h">7.963MB/26.69MB</text><use xlink:href="#13" y="8.684"/><use xlink:href="#11" y="10.855"/><use xlink:href="#15" y="13.026"/></svg><svg x="7011"><use xlink:href="#a"/><use xlink:href="#b" x="-.004" y="15.172"/><use xlink:href="#4"/><use xlink:href="#5" y="2.171"/><use xlink:href="#6" y="4.342"/><text y="8.183" class="h">5bed26d33875:</text><text x="14.028" y="8.183" class="h">Extracting</text><text x="25.05" y="8.183" class="h">[======================&gt;</text><text x="77.154" y="8.183" class="h">]</text><text x="81.162" y="8.183" class="h">11.8MB/26.69MB</text><use xlink:href="#13" y="8.684"/><use xlink:href="#11" y="10.855"/><use xlink:href="#15" y="13.026"/></svg><svg x="7134"><use xlink:href="#a"/><use xlink:href="#b" x="-.004" y="15.172"/><use xlink:href="#4"/><use xlink:href="#5" y="2.171"/><use xlink:href="#6" y="4.342"/><text y="8.183" class="h">5bed26d33875:</text><text x="14.028" y="8.183" class="h">Extracting</text><text x="25.05" y="8.183" class="h">[=============================&gt;</text><text x="77.154" y="8.183" class="h">]</text><text x="80.16" y="8.183" class="h">15.63MB/26.69MB</text><use xlink:href="#13" y="8.684"/><use xlink:href="#11" y="10.855"/><use xlink:href="#15" y="13.026"/></svg><svg x="7257"><use xlink:href="#a"/><use xlink:href="#b" x="-.004" y="15.172"/><use xlink:href="#4"/><use xlink:href="#5" y="2.171"/><use xlink:href="#6" y="4.342"/><text y="8.183" class="h">5bed26d33875:</text><text x="14.028" y="8.183" class="h">Extracting</text><text x="25.05" y="8.183" class="h">[====================================&gt;</text><text x="77.154" y="8.183" class="h">]</text><text x="80.16" y="8.183" class="h">19.46MB/26.69MB</text><use xlink:href="#13" y="8.684"/><use xlink:href="#11" y="10.855"/><use xlink:href="#15" y="13.026"/></svg><svg x="7380"><use xlink:href="#a"/><use xlink:href="#b" x="-.004" y="15.172"/><use xlink:href="#4"/><use xlink:href="#5" y="2.171"/><use xlink:href="#6" y="4.342"/><text y="8.183" class="h">5bed26d33875:</text><text x="14.028" y="8.183" class="h">Extracting</text><text x="25.05" y="8.183" class="h">[===========================================&gt;</text><text x="77.154" y="8.183" class="h">]</text><text x="81.162" y="8.183" class="h">23.3MB/26.69MB</text><use xlink:href="#13" y="8.684"/><use xlink:href="#11" y="10.855"/><use xlink:href="#15" y="13.026"/></svg><svg x="7503"><use xlink:href="#a"/><use xlink:href="#b" x="13.996" y="6.488"/><use xlink:href="#4"/><use xlink:href="#5" y="2.171"/><use xlink:href="#6" y="4.342"/><use xlink:href="#7" y="6.513"/><use xlink:href="#13" y="8.684"/><use xlink:href="#11" y="10.855"/><use xlink:href="#15" y="13.026"/></svg><svg x="7626"><use xlink:href="#a"/><use xlink:href="#b" x="-.004" y="15.172"/><use xlink:href="#4"/><use xlink:href="#5" y="2.171"/><use xlink:href="#6" y="4.342"/><text y="8.183" class="h">5bed26d33875:</text><text x="14.028" y="8.183" class="h">Extracting</text><text x="25.05" y="8.183" class="h">[===============================================&gt;</text><text x="77.154" y="8.183" class="h">]</text><text x="80.16" y="8.183" class="h">25.36MB/26.69MB</text><use xlink:href="#13" y="8.684"/><use xlink:href="#11" y="10.855"/><use xlink:href="#15" y="13.026"/></svg><svg x="7749"><use xlink:href="#a"/><use xlink:href="#b" x="13.996" y="6.488"/><use xlink:href="#4"/><use xlink:href="#5" y="2.171"/><use xlink:href="#6" y="4.342"/><use xlink:href="#7" y="6.513"/><use xlink:href="#13" y="8.684"/><use xlink:href="#11" y="10.855"/><use xlink:href="#15" y="13.026"/></svg><svg x="7872"><use xlink:href="#a"/><use xlink:href="#b" x="-.004" y="15.172"/><use xlink:href="#4"/><use xlink:href="#5" y="2.171"/><use xlink:href="#6" y="4.342"/><text y="8.183" class="h">5bed26d33875:</text><text x="14.028" y="8.183" class="h">Extracting</text><text x="25.05" y="8.183" class="h">[==================================================&gt;]</text><text x="80.16" y="8.183" class="h">26.69MB/26.69MB</text><use xlink:href="#13" y="8.684"/><use xlink:href="#11" y="10.855"/><use xlink:href="#15" y="13.026"/></svg><svg x="7995"><use xlink:href="#a"/><use xlink:href="#b" x="-.004" y="15.172"/><use xlink:href="#4"/><use xlink:href="#5" y="2.171"/><use xlink:href="#6" y="4.342"/><use xlink:href="#16" y="6.513"/><use xlink:href="#13" y="8.684"/><use xlink:href="#11" y="10.855"/><use xlink:href="#15" y="13.026"/></svg><svg x="8118"><use xlink:href="#a"/><use xlink:href="#b" x="-.004" y="15.172"/><use xlink:href="#4"/><use xlink:href="#5" y="2.171"/><use xlink:href="#6" y="4.342"/><use xlink:href="#16" y="6.513"/><text y="10.354" class="h">f11b29a9c730:</text><text x="14.028" y="10.354" class="h">Extracting</text><text x="25.05" y="10.354" class="h">[==============================================&gt;</text><text x="77.154" y="10.354" class="h">]</text><text x="80.16" y="10.354" class="h">32.77kB/35.37kB</text><use xlink:href="#11" y="10.855"/><use xlink:href="#15" y="13.026"/></svg><svg x="8241"><use xlink:href="#a"/><use xlink:href="#b" x="13.996" y="8.659"/><use xlink:href="#4"/><use xlink:href="#5" y="2.171"/><use xlink:href="#6" y="4.342"/><use xlink:href="#16" y="6.513"/><use xlink:href="#12" y="8.684"/><use xlink:href="#11" y="10.855"/><use xlink:href="#15" y="13.026"/></svg><svg x="8364"><use xlink:href="#a"/><use xlink:href="#b" x="-.004" y="15.172"/><use xlink:href="#4"/><use xlink:href="#5" y="2.171"/><use xlink:href="#6" y="4.342"/><use xlink:href="#16" y="6.513"/><use xlink:href="#17" y="8.684"/><use xlink:href="#11" y="10.855"/><use xlink:href="#15" y="13.026"/></svg><svg x="8487"><use xlink:href="#a"/><use xlink:href="#b" x="-.004" y="15.172"/><use xlink:href="#4"/><use xlink:href="#5" y="2.171"/><use xlink:href="#6" y="4.342"/><use xlink:href="#16" y="6.513"/><use xlink:href="#17" y="8.684"/><use xlink:href="#11" y="10.855"/><use xlink:href="#15" y="13.026"/></svg><svg x="8610"><use xlink:href="#a"/><use xlink:href="#b" x="-.004" y="15.172"/><use xlink:href="#4"/><use xlink:href="#5" y="2.171"/><use xlink:href="#6" y="4.342"/><use xlink:href="#16" y="6.513"/><use xlink:href="#18" y="8.684"/><use xlink:href="#11" y="10.855"/><use xlink:href="#15" y="13.026"/></svg><svg x="8733"><use xlink:href="#a"/><use xlink:href="#b" x="-.004" y="10.83"/><use xlink:href="#4"/><use xlink:href="#5" y="2.171"/><use xlink:href="#6" y="4.342"/><use xlink:href="#16" y="6.513"/><use xlink:href="#18" y="8.684"/><use xlink:href="#19" y="10.855"/><use xlink:href="#15" y="13.026"/></svg><svg x="8856"><use xlink:href="#a"/><use xlink:href="#b" x="-.004" y="15.172"/><use xlink:href="#4"/><use xlink:href="#5" y="2.171"/><use xlink:href="#6" y="4.342"/><use xlink:href="#16" y="6.513"/><use xlink:href="#18" y="8.684"/><use xlink:href="#19" y="10.855"/><use xlink:href="#15" y="13.026"/></svg><svg x="8979"><use xlink:href="#a"/><use xlink:href="#b" x="13.996" y="10.83"/><use xlink:href="#4"/><use xlink:href="#5" y="2.171"/><use xlink:href="#6" y="4.342"/><use xlink:href="#16" y="6.513"/><use xlink:href="#18" y="8.684"/><text y="12.525" class="h">930bda195c84:</text><use xlink:href="#15" y="13.026"/></svg><svg x="9102"><use xlink:href="#a"/><use xlink:href="#b" x="-.004" y="15.172"/><use xlink:href="#4"/><use xlink:href="#5" y="2.171"/><use xlink:href="#6" y="4.342"/><use xlink:href="#16" y="6.513"/><use xlink:href="#18" y="8.684"/><use xlink:href="#19" y="10.855"/><use xlink:href="#15" y="13.026"/></svg><svg x="9225"><use xlink:href="#a"/><use xlink:href="#b" x="-.004" y="15.172"/><use xlink:href="#4"/><use xlink:href="#5" y="2.171"/><use xlink:href="#6" y="4.342"/><use xlink:href="#16" y="6.513"/><use xlink:href="#18" y="8.684"/><use xlink:href="#20" y="10.855"/><use xlink:href="#15" y="13.026"/></svg><svg x="9348"><use xlink:href="#a"/><use xlink:href="#b" x="-.004" y="15.172"/><use xlink:href="#4"/><use xlink:href="#5" y="2.171"/><use xlink:href="#6" y="4.342"/><use xlink:href="#16" y="6.513"/><use xlink:href="#18" y="8.684"/><use xlink:href="#20" y="10.855"/><use xlink:href="#21" y="13.026"/></svg><svg x="9471"><use xlink:href="#a"/><use xlink:href="#b" x="-.004" y="15.172"/><use xlink:href="#4"/><use xlink:href="#5" y="2.171"/><use xlink:href="#6" y="4.342"/><use xlink:href="#16" y="6.513"/><use xlink:href="#18" y="8.684"/><use xlink:href="#20" y="10.855"/><use xlink:href="#21" y="13.026"/></svg><svg x="9594"><use xlink:href="#a"/><use xlink:href="#b" x="-.004" y="15.172"/><use xlink:href="#4"/><use xlink:href="#5" y="2.171"/><use xlink:href="#6" y="4.342"/><use xlink:href="#16" y="6.513"/><use xlink:href="#18" y="8.684"/><use xlink:href="#20" y="10.855"/><use xlink:href="#22" y="13.026"/></svg><svg x="9717"><use xlink:href="#a"/><use xlink:href="#b" x="-.004" y="17.343"/><use xlink:href="#4"/><use xlink:href="#5" y="2.171"/><use xlink:href="#6" y="4.342"/><use xlink:href="#16" y="6.513"/><use xlink:href="#18" y="8.684"/><use xlink:href="#20" y="10.855"/><use xlink:href="#22" y="13.026"/><use xlink:href="#23" y="15.197"/></svg><svg x="9840"><use xlink:href="#a"/><use xlink:href="#b" x="-.004" y="21.685"/><use xlink:href="#4"/><use xlink:href="#5" y="2.171"/><use xlink:href="#6" y="4.342"/><use xlink:href="#16" y="6.513"/><use xlink:href="#18" y="8.684"/><use xlink:href="#20" y="10.855"/><use xlink:href="#22" y="13.026"/><use xlink:href="#23" y="15.197"/><use xlink:href="#24" y="17.368"/><use xlink:href="#25" y="19.539"/></svg><svg x="9963"><use xlink:href="#a"/><use xlink:href="#b" x="-.004" y="21.685"/><use xlink:href="#4"/><use xlink:href="#5" y="2.171"/><use xlink:href="#6" y="4.342"/><use xlink:href="#16" y="6.513"/><use xlink:href="#18" y="8.684"/><use xlink:href="#20" y="10.855"/><use xlink:href="#22" y="13.026"/><use xlink:href="#23" y="15.197"/><use xlink:href="#24" y="17.368"/><use xlink:href="#25" y="19.539"/></svg><svg x="10086"><use xlink:href="#a"/><use xlink:href="#b" x="19.996" y="21.685"/><use xlink:href="#4"/><use xlink:href="#5" y="2.171"/><use xlink:href="#6" y="4.342"/><use xlink:href="#16" y="6.513"/><use xlink:href="#18" y="8.684"/><use xlink:href="#20" y="10.855"/><use xlink:href="#22" y="13.026"/><use xlink:href="#23" y="15.197"/><use xlink:href="#24" y="17.368"/><use xlink:href="#25" y="19.539"/><use xlink:href="#1" y="21.71"/></svg><svg x="10209"><use xlink:href="#a"/><use xlink:href="#b" x="-.004" y="23.856"/><use xlink:href="#4"/><use xlink:href="#5" y="2.171"/><use xlink:href="#6" y="4.342"/><use xlink:href="#16" y="6.513"/><use xlink:href="#18" y="8.684"/><use xlink:href="#20" y="10.855"/><use xlink:href="#22" y="13.026"/><use xlink:href="#23" y="15.197"/><use xlink:href="#24" y="17.368"/><use xlink:href="#25" y="19.539"/><text y="23.38" class="f">[mike@ouroboros</text><text x="16.032" y="23.38" class="g">~</text><text x="17.034" y="23.38" class="f">]$</text><text x="20.04" y="23.38" class="h">exit</text></svg></svg></g></g></svg></svg>