<?xml version="1.0" encoding="UTF-8" standalone="no"?>
<svg
   xmlns:dc="http://purl.org/dc/elements/1.1/"
   xmlns:cc="http://creativecommons.org/ns#"
   xmlns:rdf="http://www.w3.org/1999/02/22-rdf-syntax-ns#"
   xmlns:svg="http://www.w3.org/2000/svg"
   xmlns="http://www.w3.org/2000/svg"
   height="495.29999"
   width="980"
   id="svg3773"
   xml:space="preserve"
   enable-background="new 0 0 1000 1000"
   viewBox="0 0 980 495.29999"
   y="0px"
   x="0px"
   version="1.1"><defs
   id="defs3777" />
<metadata
   id="metadata3765"> Svg Vector Icons : http://www.onlinewebfonts.com/icon <rdf:RDF><cc:Work
     rdf:about=""><dc:format>image/svg+xml</dc:format><dc:type
       rdf:resource="http://purl.org/dc/dcmitype/StillImage" /><dc:title></dc:title></cc:Work></rdf:RDF></metadata>
<g
   transform="translate(-10,-252.3)"
   style="fill:#ffffff"
   id="g3771"><path
     style="fill:#ffffff"
     id="path3767"
     d="m 397.3,612.9 c 0,-1.3 -0.1,-2.5 -0.3,-3.7 h -21.5 l 10.2,-15.6 c -3,-1.6 -6.5,-2.5 -10.2,-2.5 -12,0 -21.8,9.8 -21.8,21.8 0,12 9.8,21.8 21.8,21.8 12,0 21.8,-9.7 21.8,-21.8 z" /><path
     style="fill:#ffffff"
     id="path3769"
     d="m 934.7,528.7 c 0,0 -80.2,55.1 -142.7,10 6,-11.8 11.6,-24 16.8,-36.8 44.8,2.4 90.6,-10.9 112.5,-53.7 l 5.5,-10.9 -10.6,-6.2 c -25.9,-15 -60.4,-17 -89.8,-8.4 -3.6,-31.2 -24.1,-58.7 -48.6,-78.3 l -9.6,-7.7 -8.2,9.5 c -16.3,18.9 -21.1,50.3 -18.9,74.5 1.6,17.7 7.3,35.8 18.1,50 -8.4,5 -17.8,9 -26.2,11.8 -17.2,5.8 -35.7,9 -53.8,9 h -37.6 v -80.1 h -80.8 v -78 -2.2 -78.9 h -82.9 v 78.9 h -78.8 -2 -80.8 v 80.2 h -79.5 v 80.1 h -65.1 l -1.1,11.7 c -1.4,15.4 -1.5,30.8 0,46 -33,9.6 -77.4,12.6 -112.9,-20.6 0,0 -19.7,32.7 -47.7,37.9 h 162.9 c 3,17.3 8.1,34.2 15.4,50.4 l 6.9,14.2 0.8,1.3 c 47.8,81.1 131.6,115.2 223,115.2 152.2,0 281.4,-58.4 357.2,-181 H 990 c 0,0 -53.8,-5.3 -55.3,-37.9 z M 623.5,425.4 h 6.3 v 55.7 h -6.3 z m -13.6,0 h 6.3 v 55.7 h -6.3 z m -13.6,0 h 6.3 v 55.7 h -6.3 z m -13.6,0 h 6.3 v 55.7 h -6.3 z m -12.1,0 h 6.3 v 55.7 h -6.3 z m -28,-160.3 h 6.3 v 55.7 h -6.3 z m 0,78.8 h 6.3 v 55.7 h -6.3 z m 0,81.5 h 6.3 v 55.7 h -6.3 z M 529.1,265.1 h 6.3 v 55.7 h -6.3 z m 0,78.8 h 6.3 v 55.7 h -6.3 z m 0,81.5 h 6.3 v 55.7 h -6.3 z M 515.5,265.1 h 6.3 v 55.7 h -6.3 z m 0,78.8 h 6.3 v 55.7 h -6.3 z m 0,81.5 h 6.3 v 55.7 h -6.3 z M 501.9,265.1 h 6.3 v 55.7 h -6.3 z m 0,78.8 h 6.3 v 55.7 h -6.3 z m 0,81.5 h 6.3 v 55.7 h -6.3 z M 489.8,265.1 h 6.3 v 55.7 h -6.3 z m 0,78.8 h 6.3 v 55.7 h -6.3 z m 0,81.5 h 6.3 v 55.7 h -6.3 z m -28,-81.5 h 6.3 v 55.7 h -6.3 z m 0,81.5 h 6.3 v 55.7 h -6.3 z m -13.6,-81.5 h 6.3 v 55.7 h -6.3 z m 0,81.5 h 6.3 v 55.7 h -6.3 z m -13.6,-81.5 h 6.3 v 55.7 h -6.3 z m 0,81.5 h 6.3 v 55.7 h -6.3 z M 421,343.9 h 6.3 v 55.7 H 421 Z m 0,81.5 h 6.3 v 55.7 H 421 Z m -12.1,-81.5 h 6.3 v 55.7 h -6.3 z m 0,81.5 h 6.3 v 55.7 h -6.3 z M 381,343.9 h 6.3 v 55.7 H 381 Z m 0,81.5 h 6.3 v 55.7 H 381 Z m -13.6,-81.5 h 6.3 v 55.7 h -6.3 z m 0,81.5 h 6.3 v 55.7 h -6.3 z m -13.6,-81.5 h 6.3 v 55.7 h -6.3 z m 0,81.5 h 6.3 v 55.7 h -6.3 z m -13.6,-81.5 h 6.3 v 55.7 h -6.3 z m 0,81.5 h 6.3 v 55.7 h -6.3 z m -12.1,-81.5 h 6.3 v 55.7 h -6.3 z m 0,81.5 h 6.3 v 55.7 h -6.3 z m -27.5,0 h 6.3 v 55.7 h -6.3 z m -13.6,0 h 6.3 v 55.7 H 287 Z m -13.6,0 h 6.3 v 55.7 h -6.3 z m -13.6,0 h 6.3 v 55.7 h -6.3 z m -12.1,0 h 6.3 v 55.7 h -6.3 z m -34.3,225.6 3.4,-0.3 c -2.8,-0.3 -4.6,-0.6 -5,-0.6 -2.4,-0.3 -4,-2.1 -3.6,-3.9 0.5,-1.8 2.8,-3 5.2,-2.7 0.7,0.1 64.5,8.8 99.8,-6.5 v 0 0 c 1.3,-0.6 2.6,-1.2 3.9,-1.8 2,-1.1 4.8,-0.7 6.2,0.8 1.4,1.5 0.9,3.6 -1.1,4.6 -2,1 -4,1.9 -6.1,2.8 l 1.4,3.2 c 0,0 26.9,49.8 117.4,94.3 0,0.1 -138.3,16.3 -221.5,-89.9 z m 131.4,-38.1 c 0,-17 13.8,-30.7 30.7,-30.7 17,0 30.7,13.8 30.7,30.7 0,16.9 -13.8,30.7 -30.7,30.7 -16.9,0 -30.7,-13.7 -30.7,-30.7 z M 792,538.6 c -5.9,11.1 -12.5,22.5 -15.8,28 H 173.5 c -0.8,-5.9 -1.5,-11.8 -1.9,-17.6 -0.1,0 -0.2,0.1 -0.3,0.1 27.2,-8 46.5,-20.4 46.5,-20.4 72.3,60.9 192.7,0 192.7,0 90.7,60.9 173.6,0 173.6,0 122.6,65.4 196.1,0 196.1,0 3.8,3.7 7.8,7 11.8,9.9 0,0 0,0 0,0 z" /></g>
</svg>