<svg xmlns="http://www.w3.org/2000/svg" xmlns:xlink="http://www.w3.org/1999/xlink" width="2100" height="1275.76"><rect width="2100" height="1275.76" rx="5" ry="5" class="a"/><svg y="0%" x="0%"><circle cx="20" cy="20" r="6" fill="#ff5f58"/><circle cx="40" cy="20" r="6" fill="#ffbd2e"/><circle cx="60" cy="20" r="6" fill="#18c132"/></svg><svg height="1215.76" viewBox="0 0 206 121.576" width="2060" x="15" xmlns="http://www.w3.org/2000/svg" xmlns:xlink="http://www.w3.org/1999/xlink" y="50"><style>@keyframes k{0%{transform:translateX(0)}5.1%{transform:translateX(-412px)}18.7%{transform:translateX(-618px)}19.2%{transform:translateX(-824px)}20.2%{transform:translateX(-1030px)}21.4%{transform:translateX(-1236px)}22.2%{transform:translateX(-1442px)}23%{transform:translateX(-1648px)}23.8%{transform:translateX(-1854px)}27.7%{transform:translateX(-2060px)}28.8%{transform:translateX(-2266px)}32.4%{transform:translateX(-2472px)}33.5%{transform:translateX(-2678px)}34.5%{transform:translateX(-2884px)}38.5%{transform:translateX(-3090px)}39.1%{transform:translateX(-3296px)}46.2%{transform:translateX(-3502px)}48.5%{transform:translateX(-3708px)}49.3%{transform:translateX(-3914px)}52.2%{transform:translateX(-4120px)}57.4%{transform:translateX(-4326px)}57.6%{transform:translateX(-4532px)}65.7%{transform:translateX(-4738px)}67.7%{transform:translateX(-4944px)}71.1%{transform:translateX(-5150px)}71.7%{transform:translateX(-5356px)}72.4%{transform:translateX(-5562px)}72.9%{transform:translateX(-6180px)}73.5%{transform:translateX(-6386px)}73.8%{transform:translateX(-6592px)}74%{transform:translateX(-6798px)}74.1%{transform:translateX(-7416px)}75.7%{transform:translateX(-7828px)}to{transform:translateX(-8034px)}}.a{fill:#282d35}.f{fill:#a8cc8c;font-weight:700}.f,.g,.h{white-space:pre}.g{fill:#b9bfca;font-weight:700}.h{fill:#b9c0cb}</style><g font-family="Monaco,Consolas,Menlo,'Bitstream Vera Sans Mono','Powerline Symbols',monospace" font-size="1.67"><defs><symbol id="1"><text y="1.67" class="f">[mike@ouroboros</text><text x="16.032" y="1.67" class="g">containers</text><text x="26.052" y="1.67" class="f">]$</text></symbol><symbol id="2"><text y="1.67" class="f">[mike@ouroboros</text><text x="16.032" y="1.67" class="g">containers</text><text x="26.052" y="1.67" class="f">]$</text><text x="29.058" y="1.67" class="h">docker</text></symbol><symbol id="3"><text y="1.67" class="f">[mike@ouroboros</text><text x="16.032" y="1.67" class="g">containers</text><text x="26.052" y="1.67" class="f">]$</text><text x="29.058" y="1.67" class="h">docker</text><text x="36.072" y="1.67" class="h">pull</text></symbol><symbol id="4"><text y="1.67" class="f">[mike@ouroboros</text><text x="16.032" y="1.67" class="g">containers</text><text x="26.052" y="1.67" class="f">]$</text><text x="29.058" y="1.67" class="h">docker</text><text x="36.072" y="1.67" class="h">pull</text><text x="41.082" y="1.67" class="h">alpine</text></symbol><symbol id="5"><text y="1.67" class="h">Using</text><text x="6.012" y="1.67" class="h">default</text><text x="14.028" y="1.67" class="h">tag:</text><text x="19.038" y="1.67" class="h">latest</text></symbol><symbol id="6"><text y="1.67" class="h">latest:</text><text x="8.016" y="1.67" class="h">Pulling</text><text x="16.032" y="1.67" class="h">from</text><text x="21.042" y="1.67" class="h">library/alpine</text></symbol><symbol id="7"><text y="1.67" class="h">c9b1b535fdd9:</text><text x="14.028" y="1.67" class="h">Pull</text><text x="19.038" y="1.67" class="h">complete</text></symbol><symbol id="8"><text y="1.67" class="h">Digest:</text><text x="8.016" y="1.67" class="h">sha256:ab00606a42621fb68f2ed6ad3c88be54397f981a7b70a79db3d1172b11c4367d</text></symbol><symbol id="9"><text y="1.67" class="h">Status:</text><text x="8.016" y="1.67" class="h">Downloaded</text><text x="19.038" y="1.67" class="h">newer</text><text x="25.05" y="1.67" class="h">image</text><text x="31.062" y="1.67" class="h">for</text><text x="35.07" y="1.67" class="h">alpine:latest</text></symbol><symbol id="10"><text y="1.67" class="h">docker.io/library/alpine:latest</text></symbol><symbol id="a"><path fill="transparent" d="M0 0h206v56H0z"/></symbol><symbol id="b"><path fill="#6f7683" d="M0 0h1.102v2.171H0z"/></symbol></defs><path class="a" d="M0 0h206v121.576H0z"/><g style="animation-duration:14.622635s;animation-iteration-count:infinite;animation-name:k;animation-timing-function:steps(1,end)"><svg width="8240"><svg><use xlink:href="#a"/><use xlink:href="#b" x="-.004"/></svg><svg x="206"><use xlink:href="#a"/><use xlink:href="#b" x="-.004"/></svg><svg x="412"><use xlink:href="#a"/><use xlink:href="#b" x="28.996"/><use xlink:href="#1"/></svg><svg x="618"><use xlink:href="#a"/><use xlink:href="#b" x="29.996"/><text y="1.67" class="f">[mike@ouroboros</text><text x="16.032" y="1.67" class="g">containers</text><text x="26.052" y="1.67" class="f">]$</text><text x="29.058" y="1.67" class="h">d</text></svg><svg x="824"><use xlink:href="#a"/><use xlink:href="#b" x="30.996"/><text y="1.67" class="f">[mike@ouroboros</text><text x="16.032" y="1.67" class="g">containers</text><text x="26.052" y="1.67" class="f">]$</text><text x="29.058" y="1.67" class="h">do</text></svg><svg x="1030"><use xlink:href="#a"/><use xlink:href="#b" x="31.996"/><text y="1.67" class="f">[mike@ouroboros</text><text x="16.032" y="1.67" class="g">containers</text><text x="26.052" y="1.67" class="f">]$</text><text x="29.058" y="1.67" class="h">doc</text></svg><svg x="1236"><use xlink:href="#a"/><use xlink:href="#b" x="32.996"/><text y="1.67" class="f">[mike@ouroboros</text><text x="16.032" y="1.67" class="g">containers</text><text x="26.052" y="1.67" class="f">]$</text><text x="29.058" y="1.67" class="h">dock</text></svg><svg x="1442"><use xlink:href="#a"/><use xlink:href="#b" x="33.996"/><text y="1.67" class="f">[mike@ouroboros</text><text x="16.032" y="1.67" class="g">containers</text><text x="26.052" y="1.67" class="f">]$</text><text x="29.058" y="1.67" class="h">docke</text></svg><svg x="1648"><use xlink:href="#a"/><use xlink:href="#b" x="34.996"/><use xlink:href="#2"/></svg><svg x="1854"><use xlink:href="#a"/><use xlink:href="#b" x="35.996"/><use xlink:href="#2"/></svg><svg x="2060"><use xlink:href="#a"/><use xlink:href="#b" x="36.996"/><text y="1.67" class="f">[mike@ouroboros</text><text x="16.032" y="1.67" class="g">containers</text><text x="26.052" y="1.67" class="f">]$</text><text x="29.058" y="1.67" class="h">docker</text><text x="36.072" y="1.67" class="h">p</text></svg><svg x="2266"><use xlink:href="#a"/><use xlink:href="#b" x="37.996"/><text y="1.67" class="f">[mike@ouroboros</text><text x="16.032" y="1.67" class="g">containers</text><text x="26.052" y="1.67" class="f">]$</text><text x="29.058" y="1.67" class="h">docker</text><text x="36.072" y="1.67" class="h">pu</text></svg><svg x="2472"><use xlink:href="#a"/><use xlink:href="#b" x="38.996"/><text y="1.67" class="f">[mike@ouroboros</text><text x="16.032" y="1.67" class="g">containers</text><text x="26.052" y="1.67" class="f">]$</text><text x="29.058" y="1.67" class="h">docker</text><text x="36.072" y="1.67" class="h">pul</text></svg><svg x="2678"><use xlink:href="#a"/><use xlink:href="#b" x="39.996"/><use xlink:href="#3"/></svg><svg x="2884"><use xlink:href="#a"/><use xlink:href="#b" x="40.996"/><use xlink:href="#3"/></svg><svg x="3090"><use xlink:href="#a"/><use xlink:href="#b" x="41.996"/><text y="1.67" class="f">[mike@ouroboros</text><text x="16.032" y="1.67" class="g">containers</text><text x="26.052" y="1.67" class="f">]$</text><text x="29.058" y="1.67" class="h">docker</text><text x="36.072" y="1.67" class="h">pull</text><text x="41.082" y="1.67" class="h">a</text></svg><svg x="3296"><use xlink:href="#a"/><use xlink:href="#b" x="42.996"/><text y="1.67" class="f">[mike@ouroboros</text><text x="16.032" y="1.67" class="g">containers</text><text x="26.052" y="1.67" class="f">]$</text><text x="29.058" y="1.67" class="h">docker</text><text x="36.072" y="1.67" class="h">pull</text><text x="41.082" y="1.67" class="h">al</text></svg><svg x="3502"><use xlink:href="#a"/><use xlink:href="#b" x="43.996"/><text y="1.67" class="f">[mike@ouroboros</text><text x="16.032" y="1.67" class="g">containers</text><text x="26.052" y="1.67" class="f">]$</text><text x="29.058" y="1.67" class="h">docker</text><text x="36.072" y="1.67" class="h">pull</text><text x="41.082" y="1.67" class="h">alp</text></svg><svg x="3708"><use xlink:href="#a"/><use xlink:href="#b" x="44.996"/><text y="1.67" class="f">[mike@ouroboros</text><text x="16.032" y="1.67" class="g">containers</text><text x="26.052" y="1.67" class="f">]$</text><text x="29.058" y="1.67" class="h">docker</text><text x="36.072" y="1.67" class="h">pull</text><text x="41.082" y="1.67" class="h">alpi</text></svg><svg x="3914"><use xlink:href="#a"/><use xlink:href="#b" x="45.996"/><text y="1.67" class="f">[mike@ouroboros</text><text x="16.032" y="1.67" class="g">containers</text><text x="26.052" y="1.67" class="f">]$</text><text x="29.058" y="1.67" class="h">docker</text><text x="36.072" y="1.67" class="h">pull</text><text x="41.082" y="1.67" class="h">alpin</text></svg><svg x="4120"><use xlink:href="#a"/><use xlink:href="#b" x="46.996"/><use xlink:href="#4"/></svg><svg x="4326"><use xlink:href="#a"/><use xlink:href="#b" x="-.004" y="2.146"/><use xlink:href="#4"/></svg><svg x="4532"><use xlink:href="#a"/><use xlink:href="#b" x="-.004" y="4.317"/><use xlink:href="#4"/><use xlink:href="#5" y="2.171"/></svg><svg x="4738"><use xlink:href="#a"/><use xlink:href="#b" x="-.004" y="6.488"/><use xlink:href="#4"/><use xlink:href="#5" y="2.171"/><use xlink:href="#6" y="4.342"/></svg><svg x="4944"><use xlink:href="#a"/><use xlink:href="#b" x="-.004" y="8.659"/><use xlink:href="#4"/><use xlink:href="#5" y="2.171"/><use xlink:href="#6" y="4.342"/><text y="8.183" class="h">c9b1b535fdd9:</text><text x="14.028" y="8.183" class="h">Pulling</text><text x="22.044" y="8.183" class="h">fs</text><text x="25.05" y="8.183" class="h">layer</text></svg><svg x="5150"><use xlink:href="#a"/><use xlink:href="#b" x="-.004" y="8.659"/><use xlink:href="#4"/><use xlink:href="#5" y="2.171"/><use xlink:href="#6" y="4.342"/><text y="8.183" class="h">c9b1b535fdd9:</text><text x="14.028" y="8.183" class="h">Downloading</text><text x="26.052" y="8.183" class="h">[&gt;</text><text x="78.156" y="8.183" class="h">]</text><text x="81.162" y="8.183" class="h">29.22kB/2.803MB</text></svg><svg x="5356"><use xlink:href="#a"/><use xlink:href="#b" x="-.004" y="8.659"/><use xlink:href="#4"/><use xlink:href="#5" y="2.171"/><use xlink:href="#6" y="4.342"/><text y="8.183" class="h">c9b1b535fdd9:</text><text x="14.028" y="8.183" class="h">Downloading</text><text x="26.052" y="8.183" class="h">[==============&gt;</text><text x="78.156" y="8.183" class="h">]</text><text x="81.162" y="8.183" class="h">801.2kB/2.803MB</text></svg><svg x="5562"><use xlink:href="#a"/><use xlink:href="#b" x="-.004" y="8.659"/><use xlink:href="#4"/><use xlink:href="#5" y="2.171"/><use xlink:href="#6" y="4.342"/><text y="8.183" class="h">c9b1b535fdd9:</text><text x="14.028" y="8.183" class="h">Downloading</text><text x="26.052" y="8.183" class="h">[====================================&gt;</text><text x="78.156" y="8.183" class="h">]</text><text x="81.162" y="8.183" class="h">2.042MB/2.803MB</text></svg><svg x="5768"><use xlink:href="#a"/><use xlink:href="#b" x="-.004" y="8.659"/><use xlink:href="#4"/><use xlink:href="#5" y="2.171"/><use xlink:href="#6" y="4.342"/><text y="8.183" class="h">c9b1b535fdd9:</text><text x="14.028" y="8.183" class="h">Verifying</text><text x="24.048" y="8.183" class="h">Checksum</text></svg><svg x="5974"><use xlink:href="#a"/><use xlink:href="#b" x="-.004" y="8.659"/><use xlink:href="#4"/><use xlink:href="#5" y="2.171"/><use xlink:href="#6" y="4.342"/><text y="8.183" class="h">c9b1b535fdd9:</text><text x="14.028" y="8.183" class="h">Download</text><text x="23.046" y="8.183" class="h">complete</text></svg><svg x="6180"><use xlink:href="#a"/><use xlink:href="#b" x="-.004" y="8.659"/><use xlink:href="#4"/><use xlink:href="#5" y="2.171"/><use xlink:href="#6" y="4.342"/><text y="8.183" class="h">c9b1b535fdd9:</text><text x="14.028" y="8.183" class="h">Extracting</text><text x="25.05" y="8.183" class="h">[&gt;</text><text x="77.154" y="8.183" class="h">]</text><text x="80.16" y="8.183" class="h">32.77kB/2.803MB</text></svg><svg x="6386"><use xlink:href="#a"/><use xlink:href="#b" x="-.004" y="8.659"/><use xlink:href="#4"/><use xlink:href="#5" y="2.171"/><use xlink:href="#6" y="4.342"/><text y="8.183" class="h">c9b1b535fdd9:</text><text x="14.028" y="8.183" class="h">Extracting</text><text x="25.05" y="8.183" class="h">[======================&gt;</text><text x="77.154" y="8.183" class="h">]</text><text x="80.16" y="8.183" class="h">1.245MB/2.803MB</text></svg><svg x="6592"><use xlink:href="#a"/><use xlink:href="#b" x="-.004" y="8.659"/><use xlink:href="#4"/><use xlink:href="#5" y="2.171"/><use xlink:href="#6" y="4.342"/><text y="8.183" class="h">c9b1b535fdd9:</text><text x="14.028" y="8.183" class="h">Extracting</text><text x="25.05" y="8.183" class="h">[==================================================&gt;]</text><text x="80.16" y="8.183" class="h">2.803MB/2.803MB</text></svg><svg x="6798"><use xlink:href="#a"/><use xlink:href="#b" x="-.004" y="8.659"/><use xlink:href="#4"/><use xlink:href="#5" y="2.171"/><use xlink:href="#6" y="4.342"/><use xlink:href="#7" y="6.513"/></svg><svg x="7004"><use xlink:href="#a"/><use xlink:href="#b" x="-.004" y="10.83"/><use xlink:href="#4"/><use xlink:href="#5" y="2.171"/><use xlink:href="#6" y="4.342"/><use xlink:href="#7" y="6.513"/><use xlink:href="#8" y="8.684"/></svg><svg x="7210"><use xlink:href="#a"/><use xlink:href="#b" x="-.004" y="13.001"/><use xlink:href="#4"/><use xlink:href="#5" y="2.171"/><use xlink:href="#6" y="4.342"/><use xlink:href="#7" y="6.513"/><use xlink:href="#8" y="8.684"/><use xlink:href="#9" y="10.855"/></svg><svg x="7416"><use xlink:href="#a"/><use xlink:href="#b" x="-.004" y="15.172"/><use xlink:href="#4"/><use xlink:href="#5" y="2.171"/><use xlink:href="#6" y="4.342"/><use xlink:href="#7" y="6.513"/><use xlink:href="#8" y="8.684"/><use xlink:href="#9" y="10.855"/><use xlink:href="#10" y="13.026"/></svg><svg x="7622"><use xlink:href="#a"/><use xlink:href="#b" x="-.004" y="15.172"/><use xlink:href="#4"/><use xlink:href="#5" y="2.171"/><use xlink:href="#6" y="4.342"/><use xlink:href="#7" y="6.513"/><use xlink:href="#8" y="8.684"/><use xlink:href="#9" y="10.855"/><use xlink:href="#10" y="13.026"/></svg><svg x="7828"><use xlink:href="#a"/><use xlink:href="#b" x="28.996" y="15.172"/><use xlink:href="#4"/><use xlink:href="#5" y="2.171"/><use xlink:href="#6" y="4.342"/><use xlink:href="#7" y="6.513"/><use xlink:href="#8" y="8.684"/><use xlink:href="#9" y="10.855"/><use xlink:href="#10" y="13.026"/><use xlink:href="#1" y="15.197"/></svg><svg x="8034"><use xlink:href="#a"/><use xlink:href="#b" x="-.004" y="17.343"/><use xlink:href="#4"/><use xlink:href="#5" y="2.171"/><use xlink:href="#6" y="4.342"/><use xlink:href="#7" y="6.513"/><use xlink:href="#8" y="8.684"/><use xlink:href="#9" y="10.855"/><use xlink:href="#10" y="13.026"/><text y="16.867" class="f">[mike@ouroboros</text><text x="16.032" y="16.867" class="g">containers</text><text x="26.052" y="16.867" class="f">]$</text><text x="29.058" y="16.867" class="h">exit</text></svg></svg></g></g></svg></svg>