<?xml version="1.0" encoding="UTF-8" standalone="no"?>
<!-- Created with Inkscape (http://www.inkscape.org/) -->

<svg
   xmlns:dc="http://purl.org/dc/elements/1.1/"
   xmlns:cc="http://creativecommons.org/ns#"
   xmlns:rdf="http://www.w3.org/1999/02/22-rdf-syntax-ns#"
   xmlns:svg="http://www.w3.org/2000/svg"
   xmlns="http://www.w3.org/2000/svg"
   xmlns:sodipodi="http://sodipodi.sourceforge.net/DTD/sodipodi-0.dtd"
   xmlns:inkscape="http://www.inkscape.org/namespaces/inkscape"
   width="289.98792"
   height="281.96722"
   id="svg2"
   version="1.1"
   inkscape:version="0.92.4 5da689c313, 2019-01-14"
   sodipodi:docname="kubernetes-logo.svg"
   inkscape:export-filename="/home/thockin/src/kubernetes/new.png"
   inkscape:export-xdpi="460.95001"
   inkscape:export-ydpi="460.95001">
  <defs
     id="defs4" />
  <sodipodi:namedview
     id="base"
     pagecolor="#ffffff"
     bordercolor="#666666"
     borderopacity="1.0"
     inkscape:pageopacity="0.0"
     inkscape:pageshadow="2"
     inkscape:zoom="2.8621047"
     inkscape:cx="244.44309"
     inkscape:cy="143.58589"
     inkscape:document-units="px"
     inkscape:current-layer="g3052"
     showgrid="false"
     inkscape:window-width="1872"
     inkscape:window-height="1024"
     inkscape:window-x="48"
     inkscape:window-y="28"
     inkscape:window-maximized="1"
     inkscape:snap-global="false"
     fit-margin-top="10"
     fit-margin-left="10"
     fit-margin-right="10"
     fit-margin-bottom="10" />
  <metadata
     id="metadata7">
    <rdf:RDF>
      <cc:Work
         rdf:about="">
        <dc:format>image/svg+xml</dc:format>
        <dc:type
           rdf:resource="http://purl.org/dc/dcmitype/StillImage" />
        <dc:title></dc:title>
      </cc:Work>
    </rdf:RDF>
  </metadata>
  <g
     inkscape:label="Layer 1"
     inkscape:groupmode="layer"
     id="layer1"
     transform="translate(-6.3259077,-594.75154)">
    <g
       id="g3052">
      <path
         style="fill:#ffffff;fill-opacity:1;stroke:#ffffff;stroke-width:0;stroke-miterlimit:4;stroke-dasharray:none;stroke-opacity:1"
         d="M 145.84961 10.021484 A 17.948567 17.801683 0 0 0 144.05859 10.023438 A 17.948567 17.801683 0 0 0 137.17969 11.763672 L 43.318359 56.611328 A 17.948567 17.801683 0 0 0 33.607422 68.6875 L 10.451172 169.42773 A 17.948567 17.801683 0 0 0 12.888672 183.07617 A 17.948567 17.801683 0 0 0 13.908203 184.49219 L 78.875 265.26953 A 17.948567 17.801683 0 0 0 92.908203 271.9668 L 197.0918 271.94336 A 17.948567 17.801683 0 0 0 211.125 265.25781 L 276.06836 184.46875 A 17.948567 17.801683 0 0 0 279.53711 169.40234 L 256.3457 68.664062 A 17.948567 17.801683 0 0 0 246.63477 56.587891 L 152.76172 11.763672 A 17.948567 17.801683 0 0 0 145.84961 10.021484 z M 144.98828 44.306641 C 148.09092 44.306321 150.60511 47.101568 150.60547 50.548828 C 150.60727 51.037548 150.63399 51.692551 150.61719 52.144531 C 150.5432 54.132821 150.11048 55.654488 149.84961 57.486328 C 149.37702 61.407068 148.96851 64.656934 149.21289 67.677734 C 149.43485 69.189554 150.3195 69.786568 151.05078 70.486328 C 151.06741 70.893538 151.13164 72.247524 151.18164 72.996094 C 169.04445 74.582894 185.63406 82.750794 197.81836 95.527344 L 199.95508 94.003906 C 200.67921 94.046556 202.27582 94.265089 203.36523 93.630859 C 205.87927 91.938369 208.16888 89.591504 210.93945 86.777344 C 212.20894 85.431204 213.14013 84.149162 214.64844 82.851562 C 214.99281 82.555313 215.5129 82.159269 215.89648 81.855469 C 218.59133 79.705729 222.34056 79.933915 224.27539 82.359375 C 226.21021 84.784835 225.58938 88.492838 222.89453 90.642578 C 222.51429 90.948418 222.02015 91.371412 221.6582 91.638672 C 220.05762 92.820572 218.58504 93.425021 216.99023 94.363281 C 213.63032 96.438481 210.84406 98.159775 208.63477 100.23438 C 207.59119 101.35056 207.66923 102.40602 207.57812 103.41406 C 207.26648 103.70037 206.16793 104.67407 205.58594 105.20312 C 210.4283 112.41062 214.05877 120.59069 216.11328 129.53516 C 218.14883 138.39712 218.46538 147.25533 217.28906 155.76562 L 219.55859 156.42578 C 219.96635 157.00295 220.80379 158.40605 221.98242 158.86328 C 224.87313 159.7736 228.12708 160.10797 232.05469 160.51953 C 233.89867 160.67276 235.4904 160.58095 237.44531 160.95117 C 237.91309 161.03976 238.59449 161.22641 239.07617 161.33594 C 242.38768 162.13512 244.51413 165.1788 243.83008 168.17773 C 243.14588 171.17736 239.91144 173.00036 236.58008 172.2832 C 236.55608 172.2772 236.52119 172.27748 236.49609 172.27148 C 236.45846 172.26288 236.42597 172.24338 236.38867 172.23438 C 235.9243 172.13247 235.34177 172.03257 234.93555 171.92383 C 233.01357 171.40933 231.62243 170.64041 229.89453 169.97852 C 226.17721 168.64547 223.09711 167.53149 220.09766 167.09766 C 218.57435 166.97771 217.79805 167.70446 216.95312 168.26172 C 216.5427 168.17937 215.27966 167.95605 214.55273 167.8418 C 209.16948 184.75958 197.70712 199.4077 182.16602 208.58398 C 182.43441 209.23169 182.88884 210.60968 183.10156 210.85352 C 182.74631 211.80128 182.21391 212.70763 182.66992 214.16602 C 183.76051 216.99366 185.52336 219.75663 187.65039 223.08398 C 188.68028 224.6212 189.73467 225.80325 190.66406 227.5625 C 190.88646 227.98345 191.18179 228.62934 191.39648 229.07422 C 192.84121 232.16318 191.78108 235.7226 189.00781 237.05859 C 186.2126 238.40514 182.73637 236.98262 181.24023 233.87695 C 181.02646 233.43706 180.72636 232.85116 180.54492 232.43555 C 179.74884 230.61209 179.47194 229.05072 178.91211 227.28711 C 177.63665 223.54963 176.58951 220.4554 175.05859 217.83984 C 174.20261 216.57407 173.15193 216.4108 172.18945 216.09766 C 172.01126 215.79062 171.3459 214.57184 170.98828 213.9375 C 167.88473 215.11029 164.67506 216.08675 161.34961 216.8418 C 146.77233 220.15158 132.17945 218.80874 119.14258 213.80469 L 117.87109 216.11133 C 116.92397 216.36491 116.00955 216.62058 115.44922 217.28906 C 113.40297 219.73027 112.58607 223.64897 111.09961 227.38281 C 110.53987 229.14645 110.27645 230.70971 109.48047 232.5332 C 109.30032 232.94591 108.99675 233.52204 108.7832 233.96094 C 108.7812 233.96394 108.7852 233.96966 108.7832 233.97266 C 108.7812 233.97666 108.77348 233.98037 108.77148 233.98438 C 107.27219 237.07999 103.80665 238.49796 101.01562 237.1543 C 98.242015 235.81903 97.183043 232.26124 98.626953 229.17188 C 98.841613 228.72699 99.125276 228.07917 99.347656 227.6582 C 100.27697 225.8989 101.33152 224.70525 102.36133 223.16797 C 104.48819 219.84051 106.35487 216.85699 107.44531 214.0293 C 107.71927 213.09023 107.31505 211.80442 106.94727 210.85352 L 107.9668 208.4043 C 93.012572 199.54327 81.20369 185.42077 75.568359 167.94922 L 73.119141 168.36914 C 72.4626 168.00168 71.141406 167.13042 69.888672 167.22852 C 66.889242 167.66251 63.811003 168.77613 60.09375 170.10938 C 58.365888 170.77135 56.974693 171.52837 55.052734 172.04297 C 54.646519 172.15174 54.063971 172.26525 53.599609 172.36719 C 53.562291 172.37639 53.529798 172.39334 53.492188 172.40234 C 53.467118 172.40834 53.432253 172.41102 53.408203 172.41602 C 50.077037 173.13408 46.843177 171.31 46.158203 168.31055 C 45.47339 165.3118 47.598857 162.26688 50.910156 161.4668 C 50.934816 161.4612 50.968481 161.44936 50.994141 161.44336 C 51.010511 161.43936 51.026609 161.43464 51.042969 161.43164 C 51.513738 161.32121 52.112707 161.16548 52.542969 161.08398 C 54.497859 160.71363 56.089627 160.80371 57.933594 160.65039 C 61.861187 160.23863 65.115193 159.90462 68.005859 158.99414 C 68.922364 158.61807 69.79786 157.35741 70.417969 156.55664 L 72.771484 155.87305 C 70.135103 137.61586 74.595111 119.69779 84.234375 105.19141 L 82.433594 103.58203 C 82.318768 102.88114 82.167462 101.26148 81.304688 100.3418 C 79.095284 98.267317 76.311202 96.545733 72.951172 94.470703 C 71.35632 93.532533 69.89361 92.927904 68.292969 91.746094 C 67.952514 91.494734 67.499297 91.110797 67.128906 90.810547 C 67.101356 90.789247 67.072272 90.7718 67.044922 90.75 C 64.349496 88.60098 63.729861 84.892757 65.664062 82.466797 C 66.752053 81.102197 68.415549 80.427228 70.142578 80.486328 C 71.485822 80.532328 72.875439 81.022691 74.054688 81.962891 C 74.437831 82.266051 74.960193 82.664324 75.302734 82.958984 C 76.81111 84.256494 77.730441 85.538686 79 86.884766 C 81.77072 89.698776 84.062042 92.034202 86.576172 93.726562 C 87.896555 94.495612 88.909067 94.186241 89.912109 94.050781 C 90.234886 94.289281 91.320943 95.068898 91.941406 95.492188 C 101.50346 85.346918 114.06301 77.833574 128.65039 74.521484 C 132.04044 73.751774 135.43516 73.240267 138.80664 72.960938 L 138.9375 70.583984 C 139.68546 69.859854 140.52406 68.816844 140.76172 67.677734 C 141.0061 64.656934 140.61127 61.407068 140.13867 57.486328 C 139.87781 55.654488 139.44314 54.132821 139.36914 52.144531 C 139.35394 51.736721 139.37781 51.173478 139.38281 50.705078 C 139.38161 50.652488 139.36915 50.601728 139.36914 50.548828 C 139.36877 47.101568 141.88564 44.306951 144.98828 44.306641 z M 137.95312 87.880859 C 135.96173 88.122249 133.96269 88.460002 131.96289 88.914062 C 121.0152 91.399743 111.51657 96.796759 104.08984 104.09961 L 128.25391 121.22852 L 128.30273 121.20508 C 129.12125 121.80297 130.12749 122.1543 131.21875 122.1543 C 133.88274 122.1543 136.05214 120.04856 136.16406 117.41211 L 136.28516 117.35156 L 137.95312 87.880859 z M 152.03516 87.880859 L 153.70312 117.30469 L 153.72656 117.31641 C 153.7695 118.32913 154.12622 119.3324 154.80664 120.18555 C 156.46767 122.2681 159.47059 122.65406 161.60156 121.09766 L 161.68555 121.13281 L 185.69531 104.11133 C 176.6374 95.241198 164.81666 89.452869 152.03516 87.880859 z M 95.326172 115.10742 C 88.778036 125.77489 85.675772 138.56996 87.115234 151.73242 L 115.39844 143.56836 L 115.42188 143.47266 C 116.39967 143.20549 117.30985 142.63443 117.99023 141.78125 C 119.65119 139.69845 119.35869 136.69418 117.36719 134.96289 L 117.39062 134.8418 L 95.326172 115.10742 z M 194.49414 115.11914 L 172.54883 134.75781 L 172.5625 134.81836 C 171.79748 135.48334 171.23107 136.38336 170.98828 137.44727 C 170.39569 140.04436 171.96039 142.63244 174.50586 143.32812 L 174.53125 143.44922 L 202.95703 151.63672 C 203.55915 145.50428 203.19254 139.15756 201.73242 132.80078 C 200.25457 126.36686 197.77239 120.43272 194.49414 115.11914 z M 140.46289 136.36719 L 134.83203 143.37695 L 136.84961 152.14062 L 144.98828 156.05273 L 153.10352 152.15234 L 155.11914 143.38867 L 149.50195 136.36719 L 140.46289 136.36719 z M 169.44141 160.39844 C 168.80121 160.4308 168.15745 160.59469 167.54297 160.89062 C 165.1429 162.04657 164.09942 164.88861 165.14258 167.3125 L 165.10742 167.36133 L 176.46289 194.79102 C 187.40918 187.8176 195.60143 177.3976 199.88281 165.36914 L 170.62891 160.42383 L 170.58008 160.48242 C 170.20625 160.41362 169.82553 160.37904 169.44141 160.39844 z M 120.30664 160.51953 C 119.98771 160.51503 119.66034 160.54382 119.33594 160.60352 L 119.28711 160.54297 L 90.285156 165.46484 C 94.761086 177.84875 103.12781 187.94255 113.63281 194.68359 L 124.86914 167.5293 L 124.78516 167.42188 C 125.18591 166.49082 125.3034 165.43694 125.06055 164.37305 C 124.54182 162.1005 122.53913 160.55083 120.30664 160.51953 z M 144.80859 172.41602 C 143.09773 172.47888 141.47487 173.43156 140.61914 175.03125 L 140.59375 175.03125 L 126.33398 200.81641 C 136.20342 204.17939 147.10288 204.93184 158.03711 202.44922 C 159.9881 202.00624 161.89451 201.47553 163.75 200.85352 L 149.45312 175.01953 L 149.3457 175.01953 C 148.86764 174.12572 148.1082 173.38165 147.125 172.9082 C 146.37494 172.54701 145.58625 172.38742 144.80859 172.41602 z "
         id="path3055"
         transform="translate(6.3259077,594.75154)" />
    </g>
  </g>
</svg>
