<?xml version="1.0" encoding="UTF-8" standalone="no"?>
<svg
   xmlns:dc="http://purl.org/dc/elements/1.1/"
   xmlns:cc="http://creativecommons.org/ns#"
   xmlns:rdf="http://www.w3.org/1999/02/22-rdf-syntax-ns#"
   xmlns:svg="http://www.w3.org/2000/svg"
   xmlns="http://www.w3.org/2000/svg"
   id="svg52"
   version="1.1"
   viewBox="0 0 155.46646 138.81577"
   height="138.81577mm"
   width="155.46646mm">
  <defs
     id="defs46" />
  <metadata
     id="metadata49">
    <rdf:RDF>
      <cc:Work
         rdf:about="">
        <dc:format>image/svg+xml</dc:format>
        <dc:type
           rdf:resource="http://purl.org/dc/dcmitype/StillImage" />
        <dc:title></dc:title>
      </cc:Work>
    </rdf:RDF>
  </metadata>
  <g
     style="display:inline"
     transform="translate(-298.15006,39.35546)"
     id="layer1">
    <rect
       y="-381.90192"
       x="-373.84531"
       height="1143.9882"
       width="1040.8854"
       id="rect54"
       style="display:none;fill:#2e3440;fill-opacity:1;stroke-width:0.26458332" />
    <g
       style="display:none"
       id="g4929">
      <g
         id="g4719"
         style="display:inline">
        <rect
           rx="7.2162714"
           style="fill:none;fill-opacity:1;stroke:#ffffff;stroke-width:2.56500006;stroke-miterlimit:4;stroke-dasharray:none;stroke-opacity:1"
           id="rect891"
           width="172.38884"
           height="90.871635"
           x="53.452579"
           y="137.01691"
           ry="7.2162714" />
        <text
           xml:space="preserve"
           style="font-style:normal;font-weight:normal;font-size:10.58333302px;line-height:1.25;font-family:sans-serif;letter-spacing:0px;word-spacing:0px;fill:#000000;fill-opacity:1;stroke:none;stroke-width:0.26458332"
           x="204.40511"
           y="226.57193"
           id="text933"><tspan
             id="tspan931"
             x="204.40511"
             y="226.57193"
             style="fill:#ffffff;stroke-width:0.26458332">pid</tspan></text>
      </g>
      <g
         id="g983"
         transform="translate(26.458344,15.345837)"
         style="display:inline">
        <rect
           style="fill:none;fill-opacity:1;stroke:#ffffff;stroke-width:2.56500006;stroke-miterlimit:4;stroke-dasharray:none;stroke-opacity:1"
           id="rect879"
           width="42.228584"
           height="42.228584"
           x="51.31575"
           y="145.99272"
           ry="7.2162719"
           rx="7.2162719" />
        <text
           xml:space="preserve"
           style="font-style:normal;font-weight:normal;font-size:10.58333302px;line-height:1.25;font-family:sans-serif;letter-spacing:0px;word-spacing:0px;fill:#000000;fill-opacity:1;stroke:none;stroke-width:0.26458332"
           x="67.351921"
           y="186.88496"
           id="text883"><tspan
             id="tspan881"
             x="67.351921"
             y="186.88496"
             style="fill:#ffffff;stroke-width:0.26458332">mnt</tspan></text>
        <rect
           ry="7.2162714"
           y="134.50012"
           x="39.823158"
           height="65.21376"
           width="65.21376"
           id="rect889"
           style="fill:none;fill-opacity:1;stroke:#ffffff;stroke-width:2.56500006;stroke-miterlimit:4;stroke-dasharray:none;stroke-opacity:1"
           rx="7.2162714" />
        <text
           id="text929"
           y="198.52647"
           x="83.226936"
           style="font-style:normal;font-weight:normal;font-size:10.58333302px;line-height:1.25;font-family:sans-serif;letter-spacing:0px;word-spacing:0px;fill:#000000;fill-opacity:1;stroke:none;stroke-width:0.26458332"
           xml:space="preserve"><tspan
             style="fill:#ffffff;stroke-width:0.26458332"
             y="198.52647"
             x="83.226936"
             id="tspan927">uts</tspan></text>
        <rect
           ry="1.8708904"
           rx="1.8708799"
           y="156.14896"
           x="59.601105"
           height="17.639788"
           width="25.390606"
           id="rect957"
           style="fill:#ffffff;fill-opacity:1;stroke:#ffffff;stroke-width:2.56500006;stroke-miterlimit:4;stroke-dasharray:none;stroke-opacity:1" />
      </g>
      <g
         id="g999"
         transform="translate(106.89177,15.345837)"
         style="display:inline">
        <rect
           ry="7.2162719"
           y="145.99272"
           x="51.31575"
           height="42.228584"
           width="42.228584"
           id="rect985"
           style="fill:none;fill-opacity:1;stroke:#ffffff;stroke-width:2.56500006;stroke-miterlimit:4;stroke-dasharray:none;stroke-opacity:1"
           rx="7.2162719" />
        <text
           id="text989"
           y="186.88496"
           x="67.351921"
           style="font-style:normal;font-weight:normal;font-size:10.58333302px;line-height:1.25;font-family:sans-serif;letter-spacing:0px;word-spacing:0px;fill:#000000;fill-opacity:1;stroke:none;stroke-width:0.26458332"
           xml:space="preserve"><tspan
             style="fill:#ffffff;stroke-width:0.26458332"
             y="186.88496"
             x="67.351921"
             id="tspan987">mnt</tspan></text>
        <rect
           rx="7.2162714"
           style="fill:none;fill-opacity:1;stroke:#ffffff;stroke-width:2.56500006;stroke-miterlimit:4;stroke-dasharray:none;stroke-opacity:1"
           id="rect991"
           width="65.21376"
           height="65.21376"
           x="39.823158"
           y="134.50012"
           ry="7.2162714" />
        <text
           xml:space="preserve"
           style="font-style:normal;font-weight:normal;font-size:10.58333302px;line-height:1.25;font-family:sans-serif;letter-spacing:0px;word-spacing:0px;fill:#000000;fill-opacity:1;stroke:none;stroke-width:0.26458332"
           x="83.226936"
           y="198.52647"
           id="text995"><tspan
             id="tspan993"
             x="83.226936"
             y="198.52647"
             style="fill:#ffffff;stroke-width:0.26458332">uts</tspan></text>
        <rect
           style="fill:#ffffff;fill-opacity:1;stroke:#ffffff;stroke-width:2.56500006;stroke-miterlimit:4;stroke-dasharray:none;stroke-opacity:1"
           id="rect997"
           width="25.390606"
           height="17.639788"
           x="59.601105"
           y="156.14896"
           rx="1.8708799"
           ry="1.8708904" />
      </g>
      <g
         id="g4724"
         style="display:inline">
        <rect
           ry="7.2162719"
           y="125.35645"
           x="37.655064"
           height="114.1928"
           width="203.98386"
           id="rect1001"
           style="fill:none;fill-opacity:1;stroke:#ffffff;stroke-width:2.56500006;stroke-miterlimit:4;stroke-dasharray:none;stroke-opacity:1"
           rx="7.2162714" />
        <text
           id="text1007"
           y="238.21344"
           x="214.45914"
           style="font-style:normal;font-weight:normal;font-size:10.58333302px;line-height:1.25;font-family:sans-serif;letter-spacing:0px;word-spacing:0px;fill:#000000;fill-opacity:1;stroke:none;stroke-width:0.26458332"
           xml:space="preserve"><tspan
             style="fill:#ffffff;stroke-width:0.26458332"
             y="238.21344"
             x="214.45914"
             id="tspan1005">user</tspan></text>
      </g>
      <g
         id="g4729"
         style="display:inline">
        <rect
           rx="7.2162709"
           style="fill:none;fill-opacity:1;stroke:#ffffff;stroke-width:2.56500006;stroke-miterlimit:4;stroke-dasharray:none;stroke-opacity:1"
           id="rect1003"
           width="236.05621"
           height="136.25076"
           x="23.206377"
           y="114.32743"
           ry="7.2162719" />
        <text
           xml:space="preserve"
           style="font-style:normal;font-weight:normal;font-size:10.58333302px;line-height:1.25;font-family:sans-serif;letter-spacing:0px;word-spacing:0px;fill:#000000;fill-opacity:1;stroke:none;stroke-width:0.26458332"
           x="236.68384"
           y="249.32579"
           id="text1011"><tspan
             id="tspan1009"
             x="236.68384"
             y="249.32579"
             style="fill:#ffffff;stroke-width:0.26458332">net</tspan></text>
      </g>
      <rect
         rx="7.2162714"
         style="fill:none;fill-opacity:1;stroke:#ffffff;stroke-width:2.56500006;stroke-miterlimit:4;stroke-dasharray:none;stroke-opacity:1"
         id="rect4769"
         width="91.501938"
         height="90.871635"
         x="53.452579"
         y="-15.383483"
         ry="7.2162714" />
      <text
         xml:space="preserve"
         style="font-style:normal;font-weight:normal;font-size:10.58333302px;line-height:1.25;font-family:sans-serif;letter-spacing:0px;word-spacing:0px;fill:#000000;fill-opacity:1;stroke:none;stroke-width:0.26458332"
         x="123.97282"
         y="74.171539"
         id="text4773"><tspan
           id="tspan4771"
           x="123.97282"
           y="74.171539"
           style="fill:#ffffff;stroke-width:0.26458332">pid</tspan></text>
      <g
         style="display:inline"
         transform="translate(26.458344,-137.05446)"
         id="g4791">
        <rect
           rx="7.2162719"
           ry="7.2162719"
           y="145.99272"
           x="51.31575"
           height="42.228584"
           width="42.228584"
           id="rect4777"
           style="fill:none;fill-opacity:1;stroke:#ffffff;stroke-width:2.56500006;stroke-miterlimit:4;stroke-dasharray:none;stroke-opacity:1" />
        <text
           id="text4781"
           y="186.88496"
           x="67.351921"
           style="font-style:normal;font-weight:normal;font-size:10.58333302px;line-height:1.25;font-family:sans-serif;letter-spacing:0px;word-spacing:0px;fill:#000000;fill-opacity:1;stroke:none;stroke-width:0.26458332"
           xml:space="preserve"><tspan
             style="fill:#ffffff;stroke-width:0.26458332"
             y="186.88496"
             x="67.351921"
             id="tspan4779">mnt</tspan></text>
        <rect
           rx="7.2162714"
           style="fill:none;fill-opacity:1;stroke:#ffffff;stroke-width:2.56500006;stroke-miterlimit:4;stroke-dasharray:none;stroke-opacity:1"
           id="rect4783"
           width="65.21376"
           height="65.21376"
           x="39.823158"
           y="134.50012"
           ry="7.2162714" />
        <text
           xml:space="preserve"
           style="font-style:normal;font-weight:normal;font-size:10.58333302px;line-height:1.25;font-family:sans-serif;letter-spacing:0px;word-spacing:0px;fill:#000000;fill-opacity:1;stroke:none;stroke-width:0.26458332"
           x="83.226936"
           y="198.52647"
           id="text4787"><tspan
             id="tspan4785"
             x="83.226936"
             y="198.52647"
             style="fill:#ffffff;stroke-width:0.26458332">uts</tspan></text>
        <rect
           style="fill:#ffffff;fill-opacity:1;stroke:#ffffff;stroke-width:2.56500006;stroke-miterlimit:4;stroke-dasharray:none;stroke-opacity:1"
           id="rect4789"
           width="25.390606"
           height="17.639788"
           x="59.601105"
           y="156.14896"
           rx="1.8708799"
           ry="1.8708904" />
      </g>
      <rect
         ry="7.2162719"
         y="-27.043938"
         x="37.655064"
         height="114.1928"
         width="123.85291"
         id="rect4809"
         style="fill:none;fill-opacity:1;stroke:#ffffff;stroke-width:2.56500006;stroke-miterlimit:4;stroke-dasharray:none;stroke-opacity:1"
         rx="7.2162714" />
      <text
         id="text4813"
         y="85.813049"
         x="134.55605"
         style="font-style:normal;font-weight:normal;font-size:10.58333302px;line-height:1.25;font-family:sans-serif;letter-spacing:0px;word-spacing:0px;fill:#000000;fill-opacity:1;stroke:none;stroke-width:0.26458332"
         xml:space="preserve"><tspan
           style="fill:#ffffff;stroke-width:0.26458332"
           y="85.813049"
           x="134.55605"
           id="tspan4811">user</tspan></text>
      <rect
         rx="7.2162709"
         style="fill:none;fill-opacity:1;stroke:#ffffff;stroke-width:2.56500006;stroke-miterlimit:4;stroke-dasharray:none;stroke-opacity:1"
         id="rect4817"
         width="152.90146"
         height="136.25076"
         x="23.206377"
         y="-38.07296"
         ry="7.2162719" />
      <text
         xml:space="preserve"
         style="font-style:normal;font-weight:normal;font-size:10.58333302px;line-height:1.25;font-family:sans-serif;letter-spacing:0px;word-spacing:0px;fill:#000000;fill-opacity:1;stroke:none;stroke-width:0.26458332"
         x="152.01831"
         y="96.9254"
         id="text4821"><tspan
           id="tspan4819"
           x="152.01831"
           y="96.9254"
           style="fill:#ffffff;stroke-width:0.26458332">net</tspan></text>
      <rect
         ry="7.2162714"
         y="-132.56699"
         x="8.8432808"
         height="400.83411"
         width="262.51456"
         id="rect4834"
         style="fill:none;fill-opacity:1;stroke:#ffffff;stroke-width:2.56499982;stroke-miterlimit:4;stroke-dasharray:none;stroke-opacity:1"
         rx="7.2162709" />
      <text
         xml:space="preserve"
         style="font-style:normal;font-weight:normal;font-size:10.58333302px;line-height:1.25;font-family:sans-serif;letter-spacing:0px;word-spacing:0px;fill:#000000;fill-opacity:1;stroke:none;stroke-width:0.26458332"
         x="213.93578"
         y="269.24759"
         id="text4838"><tspan
           id="tspan4836"
           x="213.93578"
           y="278.61136"
           style="stroke-width:0.26458332"></tspan></text>
      <text
         xml:space="preserve"
         style="font-style:normal;font-weight:normal;font-size:10.58333302px;line-height:1.25;font-family:sans-serif;letter-spacing:0px;word-spacing:0px;fill:#000000;fill-opacity:1;stroke:none;stroke-width:0.26458332"
         x="226.17764"
         y="267.24066"
         id="text4842"><tspan
           id="tspan4840"
           x="226.17764"
           y="267.24066"
           style="fill:#ffffff;stroke-width:0.26458332">worker</tspan></text>
      <rect
         ry="7.2162714"
         y="-124.32719"
         x="23.206377"
         height="75.217781"
         width="152.90146"
         id="rect4844"
         style="fill:none;fill-opacity:1;stroke:#ffffff;stroke-width:2.56500006;stroke-miterlimit:4;stroke-dasharray:none;stroke-opacity:1"
         rx="7.2162709" />
      <path
         style="fill:#ffffff;fill-opacity:1;stroke:#ffffff;stroke-width:0;stroke-miterlimit:4;stroke-dasharray:none;stroke-opacity:1"
         d="m 97.74548,-122.21231 a 4.7488917,4.7100286 0 0 0 -0.47387,5.3e-4 4.7488917,4.7100286 0 0 0 -1.82004,0.46044 l -24.834147,11.86593 a 4.7488917,4.7100286 0 0 0 -2.569352,3.19515 l -6.126758,26.654193 a 4.7488917,4.7100286 0 0 0 0.644922,3.61115 4.7488917,4.7100286 0 0 0 0.269751,0.37466 l 17.189134,21.37233 a 4.7488917,4.7100286 0 0 0 3.71295,1.77199 l 27.56524,-0.006 a 4.7488917,4.7100286 0 0 0 3.71295,-1.76889 l 17.18293,-21.37544 a 4.7488917,4.7100286 0 0 0 0.91778,-3.98632 l -6.13606,-26.653873 a 4.7488917,4.7100286 0 0 0 -2.56935,-3.19515 l -24.83725,-11.85974 a 4.7488917,4.7100286 0 0 0 -1.82883,-0.46096 z m -0.22789,9.07129 c 0.82091,-9e-5 1.48612,0.73949 1.48622,1.65157 5.2e-4,0.12931 0.008,0.30261 0.003,0.4222 -0.0196,0.52607 -0.13407,0.92868 -0.20309,1.41335 -0.12504,1.03736 -0.23313,1.89722 -0.16847,2.69648 0.0587,0.4 0.29279,0.55796 0.48628,0.7431 0.004,0.10775 0.0214,0.46599 0.0346,0.66405 4.7262,0.41984 9.11553,2.58093 12.3393,5.961395 l 0.56534,-0.40308 c 0.19159,0.0113 0.61403,0.0691 0.90227,-0.09869 0.66517,-0.44781 1.27096,-1.06875 2.00401,-1.81333 0.33588,-0.35617 0.58226,-0.69538 0.98133,-1.0387 0.0911,-0.0784 0.22873,-0.18317 0.33022,-0.26355 0.71301,-0.56879 1.70499,-0.50841 2.21691,0.13332 0.51193,0.64174 0.34766,1.62282 -0.36535,2.1916 -0.1006,0.0809 -0.23134,0.19284 -0.32711,0.26355 -0.42349,0.31271 -0.81311,0.47264 -1.23507,0.722185 -0.88897,0.54906 -1.62617,1.00449 -2.21071,1.55339 -0.27612,0.29533 -0.25547,0.57458 -0.27957,0.84129 -0.0824,0.0758 -0.37312,0.33338 -0.5271,0.47336 1.28121,1.90698 2.24177,4.07129 2.78536,6.43785 0.53857,2.34473 0.62232,4.68846 0.31109,6.94014 l 0.60048,0.17467 c 0.10788,0.15271 0.32946,0.52395 0.6413,0.64492 0.76484,0.240858 1.62578,0.329328 2.66496,0.438218 0.48788,0.0405 0.90903,0.0162 1.42627,0.1142 0.12376,0.0234 0.30405,0.0728 0.43149,0.10181 0.87618,0.21145 1.4388,1.01675 1.25781,1.81022 -0.18103,0.79365 -1.03681,1.27599 -1.91823,1.08624 -0.006,-0.002 -0.0156,-0.002 -0.0222,-0.003 -0.01,-0.002 -0.0185,-0.007 -0.0284,-0.01 -0.12286,-0.027 -0.27699,-0.0534 -0.38447,-0.0822 -0.50852,-0.13613 -0.8766,-0.33957 -1.33377,-0.51469 -0.98354,-0.35271 -1.79848,-0.64745 -2.59209,-0.76223 -0.40304,-0.0317 -0.60844,0.16055 -0.83199,0.30799 -0.10859,-0.0218 -0.44277,-0.0809 -0.63511,-0.1111 -1.42431,4.47616 -4.45706,8.35181 -8.56898,10.7797 0.071,0.17137 0.19125,0.53596 0.24753,0.60048 -0.094,0.25076 -0.23486,0.49057 -0.11421,0.87643 0.28856,0.74815 0.75498,1.47918 1.31775,2.35955 0.2725,0.40672 0.55147,0.71947 0.79737,1.18494 0.0588,0.11137 0.13698,0.28227 0.19379,0.39997 0.38225,0.81729 0.10176,1.75905 -0.63201,2.11253 -0.73956,0.35628 -1.65931,-0.0201 -2.05517,-0.8418 -0.0566,-0.11639 -0.13596,-0.27141 -0.18397,-0.38137 -0.21062,-0.48246 -0.28389,-0.89557 -0.43201,-1.3622 -0.33746,-0.98887 -0.61452,-1.80755 -1.01958,-2.49959 -0.22647,-0.3349 -0.50447,-0.3781 -0.75912,-0.46095 -0.0472,-0.0812 -0.22319,-0.4037 -0.31781,-0.57154 -0.82115,0.3103 -1.67038,0.56866 -2.55023,0.76843 -3.85691,0.87571 -7.71794,0.52042 -11.16728,-0.80357 l -0.33642,0.6103 c -0.25059,0.0671 -0.49253,0.13474 -0.64078,0.31161 -0.54141,0.6459 -0.75754,1.68272 -1.15084,2.67063 -0.14809,0.46663 -0.21779,0.88025 -0.42839,1.36271 -0.0477,0.1092 -0.12799,0.26163 -0.18449,0.37776 -5.3e-4,7.9e-4 5.3e-4,0.002 0,0.003 -5.3e-4,10e-4 -0.003,0.002 -0.003,0.003 -0.39669,0.81905 -1.31361,1.19422 -2.05207,0.83871 -0.73385,-0.35329 -1.01404,-1.29462 -0.632,-2.11202 0.0568,-0.11771 0.13185,-0.28911 0.19068,-0.40049 0.24588,-0.46548 0.5249,-0.7813 0.79737,-1.18804 0.56273,-0.88039 1.05663,-1.66978 1.34514,-2.41794 0.0725,-0.24846 -0.0345,-0.58867 -0.13178,-0.84026 l 0.26975,-0.64802 c -3.95663,-2.34448 -7.08107,-6.08106 -8.57208,-10.70374 l -0.64802,0.11111 c -0.17371,-0.0972 -0.52328,-0.32775 -0.85473,-0.30179 -0.7936,0.11482 -1.60805,0.40947 -2.59157,0.76222 -0.45717,0.17515 -0.82525,0.37545 -1.33377,0.5116 -0.10748,0.0288 -0.26161,0.0588 -0.38448,0.0858 -0.01,0.002 -0.0185,0.007 -0.0284,0.009 -0.007,0.002 -0.0159,0.002 -0.0222,0.004 -0.881367,0.18999 -1.736993,-0.29263 -1.918225,-1.08624 -0.18119,-0.79342 0.381173,-1.59905 1.257287,-1.81074 0.0065,-0.002 0.01543,-0.005 0.02222,-0.006 0.0043,-0.001 0.0086,-0.002 0.01292,-0.003 0.124557,-0.0292 0.283034,-0.0704 0.396875,-0.092 0.517233,-0.098 0.938383,-0.0742 1.426273,-0.11472 1.03917,-0.10895 1.90013,-0.19732 2.66495,-0.438218 0.24249,-0.0995 0.47413,-0.43305 0.6382,-0.64492 l 0.62271,-0.1809 c -0.69755,-4.83055 0.4825,-9.57137 3.03288,-13.40951 l -0.47645,-0.4259 c -0.0304,-0.18544 -0.0704,-0.61398 -0.29869,-0.85731 -0.58457,-0.54887 -1.32119,-1.00438 -2.2102,-1.5534 -0.42197,-0.247045 -0.80898,-0.407015 -1.23249,-0.719705 -0.0901,-0.0665 -0.20999,-0.16809 -0.30799,-0.24753 -0.007,-0.006 -0.015,-0.0102 -0.0222,-0.016 -0.71316,-0.5686 -0.87711,-1.54973 -0.36535,-2.1916 0.28786,-0.36105 0.728,-0.53964 1.18494,-0.524 0.3554,0.0122 0.72307,0.14191 1.03508,0.39068 0.10137,0.0802 0.23958,0.18558 0.33021,0.26355 0.39909,0.34329 0.64233,0.68254 0.97824,1.03869 0.73308,0.74454 1.33933,1.36246 2.00453,1.81023 0.34935,0.202295 0.61724,0.120445 0.88263,0.08498 0.0854,0.0631 0.37275,0.26938 0.53692,0.38137 2.52996,-2.684255 5.85301,-4.672155 9.71258,-5.548485 0.89695,-0.20365 1.79514,-0.33899 2.68718,-0.41289 l 0.0346,-0.6289 c 0.1979,-0.1916 0.41978,-0.46757 0.48266,-0.76895 0.0647,-0.79926 -0.0398,-1.65911 -0.16485,-2.69648 -0.069,-0.48467 -0.18403,-0.88728 -0.20361,-1.41335 -0.004,-0.1079 0.002,-0.25692 0.004,-0.38085 -2.6e-4,-0.0139 -0.004,-0.0273 -0.004,-0.0413 -9e-5,-0.91209 0.66583,-1.6515 1.48673,-1.65158 z m -1.86139,11.52901 c -0.52688,0.0639 -1.0558,0.15323 -1.58491,0.27337 -2.89658,0.65767 -5.40976,2.085635 -7.37475,4.017845 l 6.39341,4.53202 0.0129,-0.006 c 0.21657,0.15819 0.48281,0.25115 0.77153,0.25115 0.70485,0 1.27884,-0.55714 1.30845,-1.2547 l 0.032,-0.016 z m 3.72588,0 0.44131,7.785055 0.006,0.003 c 0.0114,0.26795 0.10574,0.5334 0.28577,0.75913 0.43948,0.551 1.23401,0.65312 1.79782,0.24132 l 0.0222,0.009 6.35259,-4.5036 c -2.39657,-2.3469 -5.52414,-3.878395 -8.90591,-4.294325 z m -15.00426,7.203695 c -1.73252,2.82244 -2.55333,6.2078 -2.17247,9.69037 l 7.48326,-2.16008 0.006,-0.0253 c 0.25871,-0.0707 0.49953,-0.22178 0.67954,-0.44752 0.43947,-0.55107 0.36208,-1.34595 -0.16484,-1.80402 l 0.006,-0.032 z m 26.2382,0.003 -5.80637,5.19606 0.004,0.016 c -0.20241,0.17594 -0.35227,0.41407 -0.41651,0.69556 -0.15679,0.68715 0.2572,1.37191 0.93069,1.55598 l 0.007,0.032 7.52099,2.16627 c 0.15931,-1.62254 0.0623,-3.30177 -0.32401,-4.98367 -0.39101,-1.70231 -1.04776,-3.27238 -1.91513,-4.67827 z m -14.29577,5.62188 -1.48983,1.85466 0.53381,2.31872 2.15336,1.03508 2.14716,-1.03197 0.5333,-2.31873 -1.48622,-1.85776 z m 7.66723,6.358268 c -0.16939,0.009 -0.33971,0.0519 -0.50229,0.13022 -0.63502,0.30584 -0.91111,1.0578 -0.63511,1.69912 l -0.009,0.0129 3.00447,7.25744 c 2.89621,-1.84505 5.06374,-4.60201 6.19652,-7.78454 l -7.74009,-1.30844 -0.0129,0.0155 c -0.0989,-0.0182 -0.19964,-0.0274 -0.30128,-0.0222 z m -13.00024,0.032 c -0.0844,-10e-4 -0.171,0.006 -0.25683,0.0222 l -0.0129,-0.016 -7.67344,1.30224 c 1.18426,3.27658 3.39796,5.94723 6.1774,7.73079 l 2.97295,-7.18457 -0.0222,-0.0284 c 0.10603,-0.24634 0.13712,-0.52518 0.0729,-0.80667 -0.13725,-0.60128 -0.66712,-1.01129 -1.2578,-1.01958 z m 6.48281,3.14762 c -0.45267,0.0166 -0.88205,0.26869 -1.10846,0.69194 h -0.007 l -3.7729,6.82233 c 2.61129,0.88979 5.49511,1.08887 8.38812,0.43201 0.5162,-0.1172 1.0206,-0.25762 1.51154,-0.42219 l -3.78272,-6.83525 h -0.0284 c -0.12649,-0.23648 -0.32742,-0.43335 -0.58756,-0.55862 -0.19845,-0.0956 -0.40713,-0.13779 -0.61288,-0.13022 z"
         id="path3055" />
      <text
         id="text4873"
         y="-50.637314"
         x="129.79372"
         style="font-style:normal;font-weight:normal;font-size:10.58333302px;line-height:1.25;font-family:sans-serif;letter-spacing:0px;word-spacing:0px;display:inline;fill:#000000;fill-opacity:1;stroke:none;stroke-width:0.26458332"
         xml:space="preserve"><tspan
           style="fill:#ffffff;stroke-width:0.26458332"
           y="-50.637314"
           x="129.79372"
           id="tspan4871">kubelet</tspan></text>
    </g>
    <g
       style="display:none"
       id="g5382">
      <g
         style="display:inline"
         id="g4937"
         transform="translate(-278.34285)">
        <rect
           ry="7.2162714"
           y="137.01691"
           x="53.452579"
           height="90.871635"
           width="172.38884"
           id="rect4931"
           style="fill:none;fill-opacity:1;stroke:#ffffff;stroke-width:2.56500006;stroke-miterlimit:4;stroke-dasharray:none;stroke-opacity:1"
           rx="7.2162714" />
        <text
           id="text4935"
           y="226.57193"
           x="204.40511"
           style="font-style:normal;font-weight:normal;font-size:10.58333302px;line-height:1.25;font-family:sans-serif;letter-spacing:0px;word-spacing:0px;fill:#000000;fill-opacity:1;stroke:none;stroke-width:0.26458332"
           xml:space="preserve"><tspan
             style="fill:#ffffff;stroke-width:0.26458332"
             y="226.57193"
             x="204.40511"
             id="tspan4933">pid</tspan></text>
      </g>
      <g
         style="display:inline"
         transform="translate(-251.88451,15.345837)"
         id="g4953">
        <rect
           rx="7.2162719"
           ry="7.2162719"
           y="145.99272"
           x="51.31575"
           height="42.228584"
           width="42.228584"
           id="rect4939"
           style="fill:none;fill-opacity:1;stroke:#ffffff;stroke-width:2.56500006;stroke-miterlimit:4;stroke-dasharray:none;stroke-opacity:1" />
        <text
           id="text4943"
           y="186.88496"
           x="67.351921"
           style="font-style:normal;font-weight:normal;font-size:10.58333302px;line-height:1.25;font-family:sans-serif;letter-spacing:0px;word-spacing:0px;fill:#000000;fill-opacity:1;stroke:none;stroke-width:0.26458332"
           xml:space="preserve"><tspan
             style="fill:#ffffff;stroke-width:0.26458332"
             y="186.88496"
             x="67.351921"
             id="tspan4941">mnt</tspan></text>
        <rect
           rx="7.2162714"
           style="fill:none;fill-opacity:1;stroke:#ffffff;stroke-width:2.56500006;stroke-miterlimit:4;stroke-dasharray:none;stroke-opacity:1"
           id="rect4945"
           width="65.21376"
           height="65.21376"
           x="39.823158"
           y="134.50012"
           ry="7.2162714" />
        <text
           xml:space="preserve"
           style="font-style:normal;font-weight:normal;font-size:10.58333302px;line-height:1.25;font-family:sans-serif;letter-spacing:0px;word-spacing:0px;fill:#000000;fill-opacity:1;stroke:none;stroke-width:0.26458332"
           x="83.226936"
           y="198.52647"
           id="text4949"><tspan
             id="tspan4947"
             x="83.226936"
             y="198.52647"
             style="fill:#ffffff;stroke-width:0.26458332">uts</tspan></text>
        <rect
           style="fill:#ffffff;fill-opacity:1;stroke:#ffffff;stroke-width:2.56500006;stroke-miterlimit:4;stroke-dasharray:none;stroke-opacity:1"
           id="rect4951"
           width="25.390606"
           height="17.639788"
           x="59.601105"
           y="156.14896"
           rx="1.8708799"
           ry="1.8708904" />
      </g>
      <g
         style="display:inline"
         transform="translate(-171.45108,15.345837)"
         id="g4969">
        <rect
           rx="7.2162719"
           style="fill:none;fill-opacity:1;stroke:#ffffff;stroke-width:2.56500006;stroke-miterlimit:4;stroke-dasharray:none;stroke-opacity:1"
           id="rect4955"
           width="42.228584"
           height="42.228584"
           x="51.31575"
           y="145.99272"
           ry="7.2162719" />
        <text
           xml:space="preserve"
           style="font-style:normal;font-weight:normal;font-size:10.58333302px;line-height:1.25;font-family:sans-serif;letter-spacing:0px;word-spacing:0px;fill:#000000;fill-opacity:1;stroke:none;stroke-width:0.26458332"
           x="67.351921"
           y="186.88496"
           id="text4959"><tspan
             id="tspan4957"
             x="67.351921"
             y="186.88496"
             style="fill:#ffffff;stroke-width:0.26458332">mnt</tspan></text>
        <rect
           ry="7.2162714"
           y="134.50012"
           x="39.823158"
           height="65.21376"
           width="65.21376"
           id="rect4961"
           style="fill:none;fill-opacity:1;stroke:#ffffff;stroke-width:2.56500006;stroke-miterlimit:4;stroke-dasharray:none;stroke-opacity:1"
           rx="7.2162714" />
        <text
           id="text4965"
           y="198.52647"
           x="83.226936"
           style="font-style:normal;font-weight:normal;font-size:10.58333302px;line-height:1.25;font-family:sans-serif;letter-spacing:0px;word-spacing:0px;fill:#000000;fill-opacity:1;stroke:none;stroke-width:0.26458332"
           xml:space="preserve"><tspan
             style="fill:#ffffff;stroke-width:0.26458332"
             y="198.52647"
             x="83.226936"
             id="tspan4963">uts</tspan></text>
        <rect
           ry="1.8708904"
           rx="1.8708799"
           y="156.14896"
           x="59.601105"
           height="17.639788"
           width="25.390606"
           id="rect4967"
           style="fill:#ffffff;fill-opacity:1;stroke:#ffffff;stroke-width:2.56500006;stroke-miterlimit:4;stroke-dasharray:none;stroke-opacity:1" />
      </g>
      <g
         style="display:inline"
         id="g4977"
         transform="translate(-278.34285)">
        <rect
           rx="7.2162714"
           style="fill:none;fill-opacity:1;stroke:#ffffff;stroke-width:2.56500006;stroke-miterlimit:4;stroke-dasharray:none;stroke-opacity:1"
           id="rect4971"
           width="203.98386"
           height="114.1928"
           x="37.655064"
           y="125.35645"
           ry="7.2162719" />
        <text
           xml:space="preserve"
           style="font-style:normal;font-weight:normal;font-size:10.58333302px;line-height:1.25;font-family:sans-serif;letter-spacing:0px;word-spacing:0px;fill:#000000;fill-opacity:1;stroke:none;stroke-width:0.26458332"
           x="214.45914"
           y="238.21344"
           id="text4975"><tspan
             id="tspan4973"
             x="214.45914"
             y="238.21344"
             style="fill:#ffffff;stroke-width:0.26458332">user</tspan></text>
      </g>
      <g
         style="display:inline"
         id="g4985"
         transform="translate(-278.34285)">
        <rect
           ry="7.2162719"
           y="114.32743"
           x="23.206377"
           height="136.25076"
           width="236.05621"
           id="rect4979"
           style="fill:none;fill-opacity:1;stroke:#ffffff;stroke-width:2.56500006;stroke-miterlimit:4;stroke-dasharray:none;stroke-opacity:1"
           rx="7.2162709" />
        <text
           id="text4983"
           y="249.32579"
           x="236.68384"
           style="font-style:normal;font-weight:normal;font-size:10.58333302px;line-height:1.25;font-family:sans-serif;letter-spacing:0px;word-spacing:0px;fill:#000000;fill-opacity:1;stroke:none;stroke-width:0.26458332"
           xml:space="preserve"><tspan
             style="fill:#ffffff;stroke-width:0.26458332"
             y="249.32579"
             x="236.68384"
             id="tspan4981">net</tspan></text>
      </g>
      <rect
         rx="7.2162709"
         style="fill:none;fill-opacity:1;stroke:#ffffff;stroke-width:2.56499982;stroke-miterlimit:4;stroke-dasharray:none;stroke-opacity:1"
         id="rect5021"
         width="262.51456"
         height="400.83411"
         x="-269.49957"
         y="-132.56699"
         ry="7.2162714" />
      <text
         id="text5029"
         y="267.24066"
         x="-52.165207"
         style="font-style:normal;font-weight:normal;font-size:10.58333302px;line-height:1.25;font-family:sans-serif;letter-spacing:0px;word-spacing:0px;fill:#000000;fill-opacity:1;stroke:none;stroke-width:0.26458332"
         xml:space="preserve"><tspan
           style="fill:#ffffff;stroke-width:0.26458332"
           y="267.24066"
           x="-52.165207"
           id="tspan5027">worker</tspan></text>
      <rect
         rx="7.2162709"
         style="fill:none;fill-opacity:1;stroke:#ffffff;stroke-width:2.56500006;stroke-miterlimit:4;stroke-dasharray:none;stroke-opacity:1"
         id="rect5031"
         width="152.90146"
         height="75.217781"
         x="-255.13647"
         y="-124.32719"
         ry="7.2162714" />
      <path
         id="path5033"
         d="m -180.59737,-122.21231 a 4.7488917,4.7100286 0 0 0 -0.47387,5.3e-4 4.7488917,4.7100286 0 0 0 -1.82004,0.46044 l -24.83415,11.86593 a 4.7488917,4.7100286 0 0 0 -2.56935,3.19515 l -6.12676,26.654193 a 4.7488917,4.7100286 0 0 0 0.64493,3.61115 4.7488917,4.7100286 0 0 0 0.26975,0.37466 l 17.18913,21.37233 a 4.7488917,4.7100286 0 0 0 3.71295,1.77199 l 27.56524,-0.006 a 4.7488917,4.7100286 0 0 0 3.71295,-1.76889 l 17.18293,-21.37544 a 4.7488917,4.7100286 0 0 0 0.91778,-3.98632 l -6.13606,-26.653873 a 4.7488917,4.7100286 0 0 0 -2.56935,-3.19515 l -24.83725,-11.85974 a 4.7488917,4.7100286 0 0 0 -1.82883,-0.46096 z m -0.22789,9.07129 c 0.82091,-9e-5 1.48612,0.73949 1.48622,1.65157 5.2e-4,0.12931 0.008,0.30261 0.003,0.4222 -0.0196,0.52607 -0.13407,0.92868 -0.20309,1.41335 -0.12504,1.03736 -0.23313,1.89722 -0.16847,2.69648 0.0587,0.4 0.29279,0.55796 0.48628,0.7431 0.004,0.10775 0.0214,0.46599 0.0346,0.66405 4.7262,0.41984 9.11553,2.58093 12.3393,5.961395 l 0.56534,-0.40308 c 0.19159,0.0113 0.61403,0.0691 0.90227,-0.09869 0.66517,-0.44781 1.27096,-1.06875 2.00401,-1.81333 0.33588,-0.35617 0.58226,-0.69538 0.98133,-1.0387 0.0911,-0.0784 0.22873,-0.18317 0.33022,-0.26355 0.71301,-0.56879 1.70499,-0.50841 2.21691,0.13332 0.51193,0.64174 0.34766,1.62282 -0.36535,2.1916 -0.1006,0.0809 -0.23134,0.19284 -0.32711,0.26355 -0.42349,0.31271 -0.81311,0.47264 -1.23507,0.72481 -0.88897,0.54906 -1.62617,1.00449 -2.21071,1.55339 -0.27612,0.29533 -0.25547,0.57458 -0.27957,0.84129 -0.0824,0.0758 -0.37312,0.33338 -0.5271,0.47336 1.28121,1.90698 2.24177,4.07129 2.78536,6.43785 0.53857,2.34473 0.62232,4.68846 0.31109,6.94014 l 0.60048,0.17467 c 0.10788,0.15271 0.32946,0.52395 0.6413,0.64492 0.76484,0.240858 1.62578,0.329328 2.66496,0.438218 0.48788,0.0405 0.90903,0.0162 1.42627,0.1142 0.12376,0.0234 0.30405,0.0728 0.43149,0.10181 0.87618,0.21145 1.4388,1.01675 1.25781,1.81022 -0.18103,0.79365 -1.03681,1.27599 -1.91823,1.08624 -0.006,-0.002 -0.0156,-0.002 -0.0222,-0.003 -0.01,-0.002 -0.0185,-0.007 -0.0284,-0.01 -0.12286,-0.027 -0.27699,-0.0534 -0.38447,-0.0822 -0.50852,-0.13613 -0.8766,-0.33957 -1.33377,-0.51469 -0.98354,-0.35271 -1.79848,-0.64745 -2.59209,-0.76223 -0.40304,-0.0317 -0.60844,0.16055 -0.83199,0.30799 -0.10859,-0.0218 -0.44277,-0.0809 -0.63511,-0.1111 -1.42431,4.47616 -4.45706,8.35181 -8.56898,10.7797 0.071,0.17137 0.19125,0.53596 0.24753,0.60048 -0.094,0.25076 -0.23486,0.49057 -0.11421,0.87643 0.28856,0.74815 0.75498,1.47918 1.31775,2.35955 0.2725,0.40672 0.55147,0.71947 0.79737,1.18494 0.0588,0.11137 0.13698,0.28227 0.19379,0.39997 0.38225,0.81729 0.10176,1.75905 -0.63201,2.11253 -0.73956,0.35628 -1.65931,-0.0201 -2.05517,-0.8418 -0.0566,-0.11639 -0.13596,-0.27141 -0.18397,-0.38137 -0.21062,-0.48246 -0.28389,-0.89557 -0.43201,-1.3622 -0.33746,-0.98887 -0.61452,-1.80755 -1.01958,-2.49959 -0.22647,-0.3349 -0.50447,-0.3781 -0.75912,-0.46095 -0.0472,-0.0812 -0.22319,-0.4037 -0.31781,-0.57154 -0.82115,0.3103 -1.67038,0.56866 -2.55023,0.76843 -3.85691,0.87571 -7.71794,0.52042 -11.16728,-0.80357 l -0.33642,0.6103 c -0.25059,0.0671 -0.49253,0.13474 -0.64078,0.31161 -0.54141,0.6459 -0.75754,1.68272 -1.15084,2.67063 -0.14809,0.46663 -0.21779,0.88025 -0.42839,1.36271 -0.0477,0.1092 -0.12799,0.26163 -0.18449,0.37776 -5.3e-4,7.9e-4 5.3e-4,0.002 0,0.003 -5.3e-4,0.001 -0.003,0.002 -0.003,0.003 -0.39669,0.81905 -1.31361,1.19422 -2.05207,0.83871 -0.73385,-0.35329 -1.01404,-1.29462 -0.632,-2.11202 0.0568,-0.11771 0.13185,-0.28911 0.19068,-0.40049 0.24588,-0.46548 0.5249,-0.7813 0.79737,-1.18804 0.56273,-0.88039 1.05663,-1.66978 1.34514,-2.41794 0.0725,-0.24846 -0.0345,-0.58867 -0.13178,-0.84026 l 0.26975,-0.64802 c -3.95663,-2.34448 -7.08107,-6.08106 -8.57208,-10.70374 l -0.64802,0.11111 c -0.17371,-0.0972 -0.52328,-0.32775 -0.85473,-0.30179 -0.7936,0.11482 -1.60805,0.40947 -2.59157,0.76222 -0.45717,0.17515 -0.82525,0.37545 -1.33377,0.5116 -0.10748,0.0288 -0.26161,0.0588 -0.38448,0.0858 -0.01,0.002 -0.0185,0.007 -0.0284,0.009 -0.007,0.002 -0.0159,0.002 -0.0222,0.004 -0.88137,0.18999 -1.73699,-0.29263 -1.91823,-1.08624 -0.18119,-0.79342 0.38118,-1.59905 1.25729,-1.81074 0.007,-0.002 0.0154,-0.005 0.0222,-0.006 0.004,-10e-4 0.009,-0.002 0.0129,-0.003 0.12456,-0.0292 0.28304,-0.0704 0.39688,-0.092 0.51723,-0.098 0.93838,-0.0742 1.42627,-0.11472 1.03917,-0.10895 1.90013,-0.19732 2.66495,-0.438218 0.24249,-0.0995 0.47413,-0.43305 0.6382,-0.64492 l 0.62271,-0.181 c -0.69755,-4.83055 0.4825,-9.57137 3.03288,-13.40951 l -0.47645,-0.4259 c -0.0304,-0.18544 -0.0704,-0.61398 -0.29869,-0.85731 -0.58457,-0.54887 -1.32119,-1.00438 -2.2102,-1.5534 -0.42197,-0.24452 -0.80898,-0.40449 -1.23249,-0.71718 -0.0901,-0.0665 -0.20999,-0.16809 -0.30799,-0.24753 -0.007,-0.006 -0.015,-0.0102 -0.0222,-0.016 -0.71316,-0.5686 -0.87711,-1.54973 -0.36535,-2.1916 0.28786,-0.36105 0.728,-0.53964 1.18494,-0.524 0.3554,0.0122 0.72307,0.14191 1.03508,0.39068 0.10137,0.0802 0.23958,0.18558 0.33021,0.26355 0.39909,0.34329 0.64233,0.68254 0.97824,1.03869 0.73308,0.74454 1.33933,1.36246 2.00453,1.81023 0.34935,0.19977 0.61724,0.11792 0.88263,0.08301 0.0854,0.0631 0.37275,0.26938 0.53692,0.38137 2.52996,-2.684245 5.85301,-4.672145 9.71258,-5.548475 0.89695,-0.20365 1.79514,-0.33899 2.68718,-0.41289 l 0.0346,-0.6289 c 0.1979,-0.1916 0.41978,-0.46757 0.48266,-0.76895 0.0647,-0.79927 -0.0398,-1.65911 -0.16485,-2.69648 -0.069,-0.48467 -0.18403,-0.88728 -0.20361,-1.41335 -0.004,-0.1079 0.002,-0.25692 0.004,-0.38085 -2.6e-4,-0.0139 -0.004,-0.0273 -0.004,-0.0413 -9e-5,-0.91209 0.66583,-1.6515 1.48673,-1.65158 z m -1.86139,11.52901 c -0.52688,0.0639 -1.0558,0.15323 -1.58491,0.27337 -2.89658,0.65767 -5.40976,2.085635 -7.37475,4.017845 l 6.39341,4.53202 0.0129,-0.006 c 0.21657,0.15819 0.48281,0.25115 0.77153,0.25115 0.70485,0 1.27884,-0.55714 1.30845,-1.2547 l 0.032,-0.016 z m 3.72588,0 0.44131,7.785055 0.006,0.003 c 0.0114,0.26795 0.10574,0.5334 0.28577,0.75913 0.43948,0.551 1.23401,0.65312 1.79782,0.24132 l 0.0222,0.009 6.35259,-4.5036 c -2.39657,-2.3469 -5.52414,-3.878395 -8.90591,-4.294325 z m -15.00426,7.203695 c -1.73252,2.82244 -2.55333,6.2078 -2.17247,9.69037 l 7.48326,-2.16008 0.006,-0.0253 c 0.25871,-0.0707 0.49953,-0.22178 0.67954,-0.44752 0.43947,-0.55107 0.36208,-1.34595 -0.16484,-1.80402 l 0.006,-0.032 z m 26.2382,0.003 -5.80637,5.19606 0.004,0.016 c -0.20241,0.17594 -0.35227,0.41407 -0.41651,0.69556 -0.15679,0.68715 0.2572,1.37191 0.93069,1.55598 l 0.007,0.032 7.52099,2.16627 c 0.15931,-1.62254 0.0623,-3.30177 -0.32401,-4.98367 -0.39101,-1.70231 -1.04776,-3.27238 -1.91513,-4.67827 z m -14.29577,5.62188 -1.48983,1.85466 0.53381,2.31872 2.15336,1.03508 2.14716,-1.03197 0.5333,-2.31873 -1.48622,-1.85776 z m 7.66723,6.358268 c -0.16939,0.009 -0.33971,0.0519 -0.50229,0.13022 -0.63502,0.30584 -0.91111,1.0578 -0.63511,1.69912 l -0.009,0.0129 3.00447,7.25744 c 2.89621,-1.84505 5.06374,-4.60201 6.19652,-7.78454 l -7.74009,-1.30844 -0.0129,0.0155 c -0.0989,-0.0182 -0.19964,-0.0274 -0.30128,-0.0222 z m -13.00024,0.032 c -0.0844,-10e-4 -0.171,0.006 -0.25683,0.0222 l -0.0129,-0.016 -7.67344,1.30224 c 1.18426,3.27658 3.39796,5.94723 6.1774,7.73079 l 2.97295,-7.18457 -0.0222,-0.0284 c 0.10603,-0.24634 0.13712,-0.52518 0.0729,-0.80667 -0.13725,-0.60128 -0.66712,-1.01129 -1.2578,-1.01958 z m 6.48281,3.14762 c -0.45267,0.0166 -0.88205,0.26869 -1.10846,0.69194 h -0.007 l -3.7729,6.82233 c 2.61129,0.88979 5.49511,1.08887 8.38812,0.43201 0.5162,-0.1172 1.0206,-0.25762 1.51154,-0.42219 l -3.78272,-6.83525 h -0.0284 c -0.12649,-0.23648 -0.32742,-0.43335 -0.58756,-0.55862 -0.19845,-0.0956 -0.40713,-0.13779 -0.61288,-0.13022 z"
         style="fill:#ffffff;fill-opacity:1;stroke:#ffffff;stroke-width:0;stroke-miterlimit:4;stroke-dasharray:none;stroke-opacity:1" />
      <text
         xml:space="preserve"
         style="font-style:normal;font-weight:normal;font-size:10.58333302px;line-height:1.25;font-family:sans-serif;letter-spacing:0px;word-spacing:0px;fill:#000000;fill-opacity:1;stroke:none;stroke-width:0.26458332"
         x="-148.54913"
         y="-50.637314"
         id="text5037"><tspan
           id="tspan5035"
           x="-148.54913"
           y="-50.637314"
           style="fill:#ffffff;stroke-width:0.26458332">kubelet</tspan></text>
    </g>
    <g
       style="display:inline"
       id="g5345">
      <g
         id="g5469">
        <rect
           rx="7.2162714"
           style="fill:none;fill-opacity:1;stroke:#ffffff;stroke-width:2.56500006;stroke-miterlimit:4;stroke-dasharray:none;stroke-opacity:1"
           id="rect5097"
           width="91.501938"
           height="90.871635"
           x="329.67874"
           y="-15.383483"
           ry="7.2162714" />
        <text
           xml:space="preserve"
           style="font-style:normal;font-weight:normal;font-size:10.58333302px;line-height:1.25;font-family:sans-serif;letter-spacing:0px;word-spacing:0px;display:inline;fill:#000000;fill-opacity:1;stroke:none;stroke-width:0.26458332"
           x="400.19897"
           y="74.171539"
           id="text5101"><tspan
             id="tspan5099"
             x="400.19897"
             y="74.171539"
             style="fill:#ffffff;stroke-width:0.26458332">pid</tspan></text>
        <g
           style="display:inline"
           transform="translate(302.68451,-137.05446)"
           id="g5117">
          <rect
             rx="7.2162719"
             ry="7.2162719"
             y="145.99272"
             x="51.31575"
             height="42.228584"
             width="42.228584"
             id="rect5103"
             style="fill:none;fill-opacity:1;stroke:#ffffff;stroke-width:2.56500006;stroke-miterlimit:4;stroke-dasharray:none;stroke-opacity:1" />
          <text
             id="text5107"
             y="186.88496"
             x="67.351921"
             style="font-style:normal;font-weight:normal;font-size:10.58333302px;line-height:1.25;font-family:sans-serif;letter-spacing:0px;word-spacing:0px;fill:#000000;fill-opacity:1;stroke:none;stroke-width:0.26458332"
             xml:space="preserve"><tspan
               style="fill:#ffffff;stroke-width:0.26458332"
               y="186.88496"
               x="67.351921"
               id="tspan5105">mnt</tspan></text>
          <rect
             rx="7.2162714"
             style="fill:none;fill-opacity:1;stroke:#ffffff;stroke-width:2.56500006;stroke-miterlimit:4;stroke-dasharray:none;stroke-opacity:1"
             id="rect5109"
             width="65.21376"
             height="65.21376"
             x="39.823158"
             y="134.50012"
             ry="7.2162714" />
          <text
             xml:space="preserve"
             style="font-style:normal;font-weight:normal;font-size:10.58333302px;line-height:1.25;font-family:sans-serif;letter-spacing:0px;word-spacing:0px;fill:#000000;fill-opacity:1;stroke:none;stroke-width:0.26458332"
             x="83.226936"
             y="198.52647"
             id="text5113"><tspan
               id="tspan5111"
               x="83.226936"
               y="198.52647"
               style="fill:#ffffff;stroke-width:0.26458332">uts</tspan></text>
          <rect
             style="fill:#ffffff;fill-opacity:1;stroke:#ffffff;stroke-width:2.56500006;stroke-miterlimit:4;stroke-dasharray:none;stroke-opacity:1"
             id="rect5115"
             width="25.390606"
             height="17.639788"
             x="59.601105"
             y="156.14896"
             rx="1.8708799"
             ry="1.8708904" />
        </g>
        <rect
           ry="7.2162719"
           y="-27.043938"
           x="313.88123"
           height="114.1928"
           width="123.85291"
           id="rect5119"
           style="fill:none;fill-opacity:1;stroke:#ffffff;stroke-width:2.56500006;stroke-miterlimit:4;stroke-dasharray:none;stroke-opacity:1"
           rx="7.2162714" />
        <text
           id="text5123"
           y="85.813049"
           x="410.78223"
           style="font-style:normal;font-weight:normal;font-size:10.58333302px;line-height:1.25;font-family:sans-serif;letter-spacing:0px;word-spacing:0px;fill:#000000;fill-opacity:1;stroke:none;stroke-width:0.26458332"
           xml:space="preserve"><tspan
             style="fill:#ffffff;stroke-width:0.26458332"
             y="85.813049"
             x="410.78223"
             id="tspan5121">user</tspan></text>
        <rect
           rx="7.2162709"
           style="fill:none;fill-opacity:1;stroke:#ffffff;stroke-width:2.56500006;stroke-miterlimit:4;stroke-dasharray:none;stroke-opacity:1"
           id="rect5125"
           width="152.90146"
           height="136.25076"
           x="299.43256"
           y="-38.07296"
           ry="7.2162719" />
        <text
           xml:space="preserve"
           style="font-style:normal;font-weight:normal;font-size:10.58333302px;line-height:1.25;font-family:sans-serif;letter-spacing:0px;word-spacing:0px;fill:#000000;fill-opacity:1;stroke:none;stroke-width:0.26458332"
           x="428.24448"
           y="96.9254"
           id="text5129"><tspan
             id="tspan5127"
             x="428.24448"
             y="96.9254"
             style="fill:#ffffff;stroke-width:0.26458332">net</tspan></text>
      </g>
      <g
         style="display:none"
         id="g5450">
        <rect
           ry="7.2162714"
           y="-132.56699"
           x="285.06946"
           height="400.83411"
           width="262.51456"
           id="rect5131"
           style="fill:none;fill-opacity:1;stroke:#ffffff;stroke-width:2.56499982;stroke-miterlimit:4;stroke-dasharray:none;stroke-opacity:1"
           rx="7.2162709" />
        <text
           xml:space="preserve"
           style="font-style:normal;font-weight:normal;font-size:10.58333302px;line-height:1.25;font-family:sans-serif;letter-spacing:0px;word-spacing:0px;fill:#000000;fill-opacity:1;stroke:none;stroke-width:0.26458332"
           x="502.40381"
           y="267.24066"
           id="text5139"><tspan
             id="tspan5137"
             x="502.40381"
             y="267.24066"
             style="fill:#ffffff;stroke-width:0.26458332">worker</tspan></text>
      </g>
      <g
         style="display:none"
         id="g5445">
        <rect
           ry="7.2162714"
           y="-124.32719"
           x="299.43256"
           height="75.217781"
           width="152.90146"
           id="rect5141"
           style="fill:none;fill-opacity:1;stroke:#ffffff;stroke-width:2.56500006;stroke-miterlimit:4;stroke-dasharray:none;stroke-opacity:1"
           rx="7.2162709" />
        <path
           style="fill:#ffffff;fill-opacity:1;stroke:#ffffff;stroke-width:0;stroke-miterlimit:4;stroke-dasharray:none;stroke-opacity:1"
           d="m 373.97165,-122.21231 a 4.7488917,4.7100286 0 0 0 -0.47387,5.3e-4 4.7488917,4.7100286 0 0 0 -1.82004,0.46044 l -24.83415,11.86593 a 4.7488917,4.7100286 0 0 0 -2.56935,3.19515 l -6.12676,26.654193 a 4.7488917,4.7100286 0 0 0 0.64493,3.61115 4.7488917,4.7100286 0 0 0 0.26975,0.37466 l 17.18913,21.37233 a 4.7488917,4.7100286 0 0 0 3.71295,1.77199 l 27.56524,-0.006 a 4.7488917,4.7100286 0 0 0 3.71295,-1.76889 l 17.18293,-21.37544 a 4.7488917,4.7100286 0 0 0 0.91778,-3.98632 l -6.13606,-26.653873 a 4.7488917,4.7100286 0 0 0 -2.56935,-3.19515 l -24.83725,-11.85974 a 4.7488917,4.7100286 0 0 0 -1.82883,-0.46096 z m -0.22789,9.07129 c 0.82091,-9e-5 1.48612,0.73949 1.48622,1.65157 5.2e-4,0.12931 0.008,0.30261 0.003,0.4222 -0.0196,0.52607 -0.13407,0.92868 -0.20309,1.41335 -0.12504,1.03736 -0.23313,1.89722 -0.16847,2.69648 0.0587,0.4 0.29279,0.55796 0.48628,0.7431 0.004,0.10775 0.0214,0.46599 0.0346,0.66405 4.7262,0.41984 9.11553,2.58093 12.3393,5.961395 l 0.56534,-0.40308 c 0.19159,0.0113 0.61403,0.0691 0.90227,-0.09869 0.66517,-0.44781 1.27096,-1.06875 2.00401,-1.81333 0.33588,-0.35617 0.58226,-0.69538 0.98133,-1.0387 0.0911,-0.0784 0.22873,-0.18317 0.33022,-0.26355 0.71301,-0.56879 1.70499,-0.50841 2.21691,0.13332 0.51193,0.64174 0.34766,1.62282 -0.36535,2.1916 -0.1006,0.0809 -0.23134,0.19284 -0.32711,0.26355 -0.42349,0.31271 -0.81311,0.47264 -1.23507,0.72501 -0.88897,0.54906 -1.62617,1.00449 -2.21071,1.55339 -0.27612,0.29533 -0.25547,0.57458 -0.27957,0.84129 -0.0824,0.0758 -0.37312,0.33338 -0.5271,0.47336 1.28121,1.90698 2.24177,4.07129 2.78536,6.43785 0.53857,2.34473 0.62232,4.68846 0.31109,6.94014 l 0.60048,0.17467 c 0.10788,0.15271 0.32946,0.52395 0.6413,0.64492 0.76484,0.240858 1.62578,0.329328 2.66496,0.438218 0.48788,0.0405 0.90903,0.0162 1.42627,0.1142 0.12376,0.0234 0.30405,0.0728 0.43149,0.10181 0.87618,0.21145 1.4388,1.01675 1.25781,1.81022 -0.18103,0.79365 -1.03681,1.27599 -1.91823,1.08624 -0.006,-0.002 -0.0156,-0.002 -0.0222,-0.003 -0.01,-0.002 -0.0185,-0.007 -0.0284,-0.01 -0.12286,-0.027 -0.27699,-0.0534 -0.38447,-0.0822 -0.50852,-0.13613 -0.8766,-0.33957 -1.33377,-0.51469 -0.98354,-0.35271 -1.79848,-0.64745 -2.59209,-0.76223 -0.40304,-0.0317 -0.60844,0.16055 -0.83199,0.30799 -0.10859,-0.0218 -0.44277,-0.0809 -0.63511,-0.1111 -1.42431,4.47616 -4.45706,8.35181 -8.56898,10.7797 0.071,0.17137 0.19125,0.53596 0.24753,0.60048 -0.094,0.25076 -0.23486,0.49057 -0.11421,0.87643 0.28856,0.74815 0.75498,1.47918 1.31775,2.35955 0.2725,0.40672 0.55147,0.71947 0.79737,1.18494 0.0588,0.11137 0.13698,0.28227 0.19379,0.39997 0.38225,0.81729 0.10176,1.75905 -0.63201,2.11253 -0.73956,0.35628 -1.65931,-0.0201 -2.05517,-0.8418 -0.0566,-0.11639 -0.13596,-0.27141 -0.18397,-0.38137 -0.21062,-0.48246 -0.28389,-0.89557 -0.43201,-1.3622 -0.33746,-0.98887 -0.61452,-1.80755 -1.01958,-2.49959 -0.22647,-0.3349 -0.50447,-0.3781 -0.75912,-0.46095 -0.0472,-0.0812 -0.22319,-0.4037 -0.31781,-0.57154 -0.82115,0.3103 -1.67038,0.56866 -2.55023,0.76843 -3.85691,0.87571 -7.71794,0.52042 -11.16728,-0.80357 l -0.33642,0.6103 c -0.25059,0.0671 -0.49253,0.13474 -0.64078,0.31161 -0.54141,0.6459 -0.75754,1.68272 -1.15084,2.67063 -0.14809,0.46663 -0.21779,0.88025 -0.42839,1.36271 -0.0477,0.1092 -0.12799,0.26163 -0.18449,0.37776 -5.3e-4,7.9e-4 5.3e-4,0.002 0,0.003 -5.3e-4,0.001 -0.003,0.002 -0.003,0.003 -0.39669,0.81905 -1.31361,1.19422 -2.05207,0.83871 -0.73385,-0.35329 -1.01404,-1.29462 -0.632,-2.11202 0.0568,-0.11771 0.13185,-0.28911 0.19068,-0.40049 0.24588,-0.46548 0.5249,-0.7813 0.79737,-1.18804 0.56273,-0.88039 1.05663,-1.66978 1.34514,-2.41794 0.0725,-0.24846 -0.0345,-0.58867 -0.13178,-0.84026 l 0.26975,-0.64802 c -3.95663,-2.34448 -7.08107,-6.08106 -8.57208,-10.70374 l -0.64802,0.11111 c -0.17371,-0.0972 -0.52328,-0.32775 -0.85473,-0.30179 -0.7936,0.11482 -1.60805,0.40947 -2.59157,0.76222 -0.45717,0.17515 -0.82525,0.37545 -1.33377,0.5116 -0.10748,0.0288 -0.26161,0.0588 -0.38448,0.0858 -0.01,0.002 -0.0185,0.007 -0.0284,0.009 -0.007,0.002 -0.0159,0.002 -0.0222,0.004 -0.88137,0.18999 -1.73699,-0.29263 -1.91823,-1.08624 -0.18119,-0.79342 0.38118,-1.59905 1.25729,-1.81074 0.006,-0.002 0.0154,-0.005 0.0222,-0.006 0.004,-0.001 0.009,-0.002 0.0129,-0.003 0.12456,-0.0292 0.28304,-0.0704 0.39688,-0.092 0.51723,-0.098 0.93838,-0.0742 1.42627,-0.11472 1.03917,-0.10895 1.90013,-0.19732 2.66495,-0.438218 0.24249,-0.0995 0.47413,-0.43305 0.6382,-0.64492 l 0.62271,-0.181 c -0.69755,-4.83055 0.4825,-9.57137 3.03288,-13.40951 l -0.47645,-0.4259 c -0.0304,-0.18544 -0.0704,-0.61398 -0.29869,-0.85731 -0.58457,-0.54887 -1.32119,-1.00438 -2.2102,-1.5534 -0.42197,-0.24432 -0.80898,-0.40429 -1.23249,-0.71698 -0.0901,-0.0665 -0.20999,-0.16809 -0.30799,-0.24753 -0.007,-0.006 -0.015,-0.0102 -0.0222,-0.016 -0.71316,-0.5686 -0.87711,-1.54973 -0.36535,-2.1916 0.28786,-0.36105 0.728,-0.53964 1.18494,-0.524 0.3554,0.0122 0.72307,0.14191 1.03508,0.39068 0.10137,0.0802 0.23958,0.18558 0.33021,0.26355 0.39909,0.34329 0.64233,0.68254 0.97824,1.03869 0.73308,0.74454 1.33933,1.36246 2.00453,1.81023 0.34935,0.19957 0.61724,0.11772 0.88263,0.08301 0.0854,0.0631 0.37275,0.26938 0.53692,0.38137 2.52996,-2.684245 5.85301,-4.672145 9.71258,-5.548475 0.89695,-0.20365 1.79514,-0.33899 2.68718,-0.41289 l 0.0346,-0.6289 c 0.1979,-0.1916 0.41978,-0.46757 0.48266,-0.76895 0.0647,-0.79927 -0.0398,-1.65911 -0.16485,-2.69648 -0.069,-0.48467 -0.18403,-0.88728 -0.20361,-1.41335 -0.004,-0.1079 0.002,-0.25692 0.004,-0.38085 -2.6e-4,-0.0139 -0.004,-0.0273 -0.004,-0.0413 -9e-5,-0.91209 0.66583,-1.6515 1.48673,-1.65158 z m -1.86139,11.52901 c -0.52688,0.0639 -1.0558,0.15323 -1.58491,0.27337 -2.89658,0.65767 -5.40976,2.085635 -7.37475,4.017845 l 6.39341,4.53202 0.0129,-0.006 c 0.21657,0.15819 0.48281,0.25115 0.77153,0.25115 0.70485,0 1.27884,-0.55714 1.30845,-1.2547 l 0.032,-0.016 z m 3.72588,0 0.44131,7.785055 0.006,0.003 c 0.0114,0.26795 0.10574,0.5334 0.28577,0.75913 0.43948,0.551 1.23401,0.65312 1.79782,0.24132 l 0.0222,0.009 6.35259,-4.5036 c -2.39657,-2.3469 -5.52414,-3.878395 -8.90591,-4.294325 z m -15.00426,7.203695 c -1.73252,2.82244 -2.55333,6.2078 -2.17247,9.69037 l 7.48326,-2.16008 0.006,-0.0253 c 0.25871,-0.0707 0.49953,-0.22178 0.67954,-0.44752 0.43947,-0.55107 0.36208,-1.34595 -0.16484,-1.80402 l 0.006,-0.032 z m 26.2382,0.003 -5.80637,5.19606 0.004,0.016 c -0.20241,0.17594 -0.35227,0.41407 -0.41651,0.69556 -0.15679,0.68715 0.2572,1.37191 0.93069,1.55598 l 0.007,0.032 7.52099,2.16627 c 0.15931,-1.62254 0.0623,-3.30177 -0.32401,-4.98367 -0.39101,-1.70231 -1.04776,-3.27238 -1.91513,-4.67827 z m -14.29577,5.62188 -1.48983,1.85466 0.53381,2.31872 2.15336,1.03508 2.14716,-1.03197 0.5333,-2.31873 -1.48622,-1.85776 z m 7.66723,6.358268 c -0.16939,0.009 -0.33971,0.0519 -0.50229,0.13022 -0.63502,0.30584 -0.91111,1.0578 -0.63511,1.69912 l -0.009,0.0129 3.00447,7.25744 c 2.89621,-1.84505 5.06374,-4.60201 6.19652,-7.78454 l -7.74009,-1.30844 -0.0129,0.0155 c -0.0989,-0.0182 -0.19964,-0.0274 -0.30128,-0.0222 z m -13.00024,0.032 c -0.0844,-10e-4 -0.171,0.006 -0.25683,0.0222 l -0.0129,-0.016 -7.67344,1.30224 c 1.18426,3.27658 3.39796,5.94723 6.1774,7.73079 l 2.97295,-7.18457 -0.0222,-0.0284 c 0.10603,-0.24634 0.13712,-0.52518 0.0729,-0.80667 -0.13725,-0.60128 -0.66712,-1.01129 -1.2578,-1.01958 z m 6.48281,3.14762 c -0.45267,0.0166 -0.88205,0.26869 -1.10846,0.69194 h -0.007 l -3.7729,6.82233 c 2.61129,0.88979 5.49511,1.08887 8.38812,0.43201 0.5162,-0.1172 1.0206,-0.25762 1.51154,-0.42219 l -3.78272,-6.83525 h -0.0284 c -0.12649,-0.23648 -0.32742,-0.43335 -0.58756,-0.55862 -0.19845,-0.0956 -0.40713,-0.13779 -0.61288,-0.13022 z"
           id="path5143" />
        <text
           id="text5147"
           y="-50.637314"
           x="406.0199"
           style="font-style:normal;font-weight:normal;font-size:10.58333302px;line-height:1.25;font-family:sans-serif;letter-spacing:0px;word-spacing:0px;display:inline;fill:#000000;fill-opacity:1;stroke:none;stroke-width:0.26458332"
           xml:space="preserve"><tspan
             style="fill:#ffffff;stroke-width:0.26458332"
             y="-50.637314"
             x="406.0199"
             id="tspan5145">kubelet</tspan></text>
      </g>
    </g>
    <g
       style="display:none"
       transform="translate(134.93778,6.3500003)"
       id="g5271">
      <rect
         ry="7.2162714"
         y="-295.02029"
         x="-125.90312"
         height="142.49754"
         width="260.91693"
         id="rect5259"
         style="display:inline;fill:none;fill-opacity:1;stroke:#ffffff;stroke-width:2.56500006;stroke-miterlimit:4;stroke-dasharray:none;stroke-opacity:1"
         rx="7.2162709" />
      <path
         style="fill:#ffffff;fill-opacity:1;stroke:#ffffff;stroke-width:0;stroke-miterlimit:4;stroke-dasharray:none;stroke-opacity:1"
         d="m 4.0823607,-259.26734 a 4.7488917,4.7100286 0 0 0 -0.4738667,5.3e-4 4.7488917,4.7100286 0 0 0 -1.8200301,0.46044 l -24.8340019,11.86593 a 4.7488917,4.7100286 0 0 0 -2.569335,3.19515 l -6.126724,26.65431 a 4.7488917,4.7100286 0 0 0 0.644924,3.61117 4.7488917,4.7100286 0 0 0 0.26975,0.37466 l 17.189031,21.37245 a 4.7488917,4.7100286 0 0 0 3.7129287,1.772 l 27.5650723,-0.006 a 4.7488917,4.7100286 0 0 0 3.712929,-1.7689 l 17.182834,-21.37556 a 4.7488917,4.7100286 0 0 0 0.917774,-3.98634 l -6.136024,-26.65399 a 4.7488917,4.7100286 0 0 0 -2.569338,-3.19515 L 5.9111775,-258.80638 a 4.7488917,4.7100286 0 0 0 -1.8288168,-0.46096 z m -0.22789,9.07129 c 0.8209067,-9e-5 1.4861105,0.73949 1.4862105,1.65157 5.2e-4,0.12931 0.008,0.30261 0.003,0.4222 -0.0196,0.52607 -0.1340671,0.92868 -0.2030871,1.41335 -0.12504,1.03736 -0.23313,1.89722 -0.16847,2.69648 0.0587,0.4 0.2927901,0.55796 0.4862767,0.7431 0.004,0.10775 0.0214,0.46599 0.0346,0.66405 4.7261702,0.41984 9.1154762,2.58093 12.3392282,5.9614 l 0.565337,-0.40308 c 0.191587,0.0113 0.614027,0.0691 0.902264,-0.0987 0.665167,-0.44781 1.270954,-1.06875 2.003998,-1.81333 0.33588,-0.35617 0.582257,-0.69538 0.981324,-1.0387 0.0911,-0.0784 0.22873,-0.18317 0.33022,-0.26355 0.713004,-0.56879 1.704981,-0.50841 2.216898,0.13332 0.511927,0.64174 0.347657,1.62282 -0.36535,2.1916 -0.1006,0.0809 -0.231337,0.19284 -0.327107,0.26355 -0.423487,0.31271 -0.813107,0.47264 -1.235064,0.72413 -0.888964,0.54907 -1.626161,1.0045 -2.210698,1.5534 -0.276117,0.29533 -0.255467,0.57459 -0.279567,0.8413 -0.0824,0.0758 -0.373117,0.33338 -0.527097,0.47336 1.281204,1.90699 2.241758,4.07131 2.785345,6.43788 0.538567,2.34475 0.622317,4.68849 0.311087,6.94018 l 0.600477,0.17468 c 0.10788,0.15271 0.329457,0.52395 0.641297,0.64492 0.764834,0.24086 1.625771,0.32933 2.664945,0.43822 0.487877,0.0405 0.909024,0.0162 1.426261,0.1142 0.12376,0.0234 0.304047,0.0728 0.431487,0.10181 0.876177,0.21145 1.438791,1.01676 1.257804,1.81023 -0.18103,0.79366 -1.036804,1.276 -1.918221,1.08625 -0.006,-0.002 -0.0156,-0.002 -0.0222,-0.003 -0.01,-0.002 -0.0185,-0.007 -0.0284,-0.01 -0.12286,-0.027 -0.27699,-0.0534 -0.38447,-0.0822 -0.508524,-0.13613 -0.876601,-0.33957 -1.333768,-0.51469 -0.983534,-0.35272 -1.798471,-0.64746 -2.592075,-0.76224 -0.40304,-0.0317 -0.608437,0.16055 -0.831987,0.30799 -0.10859,-0.0218 -0.442767,-0.0809 -0.635107,-0.1111 -1.424301,4.47618 -4.457033,8.35185 -8.568929,10.77976 0.071,0.17137 0.191247,0.53596 0.247527,0.60048 -0.094,0.25076 -0.234857,0.49057 -0.11421,0.87644 0.28856,0.74815 0.754977,1.47918 1.317744,2.35956 0.272497,0.40672 0.551467,0.71947 0.797364,1.18494 0.0588,0.11138 0.13698,0.28228 0.19379,0.39998 0.382247,0.81729 0.10176,1.75906 -0.632007,2.11254 -0.739554,0.35628 -1.659301,-0.0201 -2.055158,-0.84181 -0.0566,-0.11639 -0.13596,-0.27141 -0.18397,-0.38137 -0.210617,-0.48246 -0.283887,-0.89557 -0.432007,-1.36221 -0.337457,-0.98887 -0.614517,-1.80755 -1.019574,-2.4996 -0.226467,-0.3349 -0.504467,-0.3781 -0.759114,-0.46095 -0.0472,-0.0812 -0.22319,-0.4037 -0.31781,-0.57155 -0.8211436,0.31031 -1.6703703,0.56867 -2.5502137,0.76844 -3.8568869,0.87572 -7.71789039,0.52042 -11.1672105,-0.80358 l -0.3364167,0.61031 c -0.25059,0.0671 -0.4925267,0.13474 -0.6407767,0.31161 -0.5414067,0.6459 -0.7575364,1.68273 -1.1508334,2.67064 -0.1480897,0.46664 -0.2177867,0.88026 -0.4283867,1.36272 -0.0477,0.1092 -0.12799,0.26163 -0.18449,0.37776 -5.3e-4,8e-4 5.3e-4,0.002 0,0.003 -5.3e-4,0.001 -0.003,0.002 -0.003,0.003 -0.3966867,0.81906 -1.3136001,1.19423 -2.0520568,0.83872 -0.7338434,-0.3533 -1.0140334,-1.29463 -0.6319967,-2.11203 0.0568,-0.11771 0.13185,-0.28911 0.19068,-0.4005 0.24588,-0.46548 0.5248967,-0.7813 0.7973667,-1.18804 0.5627237,-0.8804 1.0566234,-1.66979 1.3451301,-2.41795 0.0725,-0.24847 -0.0345,-0.58868 -0.13178,-0.84027 l 0.26975,-0.64802 c -3.9566069,-2.3445 -7.0810286,-6.0811 -8.5720296,-10.7038 l -0.648017,0.11111 c -0.173707,-0.0972 -0.523277,-0.32775 -0.854724,-0.30179 -0.793597,0.11482 -1.608041,0.40947 -2.591555,0.76223 -0.457167,0.17515 -0.825247,0.37545 -1.333764,0.51159 -0.10748,0.0288 -0.261607,0.0588 -0.384477,0.0858 -0.01,0.002 -0.0185,0.007 -0.0284,0.009 -0.007,0.002 -0.0159,0.002 -0.0222,0.004 -0.881364,0.18999 -1.736981,-0.29262 -1.918218,-1.08624 -0.18119,-0.79342 0.381177,-1.59906 1.257281,-1.81075 0.007,-0.002 0.0154,-0.005 0.0222,-0.006 0.004,-0.001 0.009,-0.002 0.0129,-0.003 0.12456,-0.0292 0.28304,-0.0704 0.396877,-0.092 0.517227,-0.098 0.938377,-0.0742 1.426264,-0.11472 1.039164,-0.10895 1.900118,-0.19732 2.664935,-0.43822 0.242487,-0.0995 0.474127,-0.43305 0.638197,-0.64492 l 0.622704,-0.18101 c -0.697544,-4.83057 0.482497,-9.57142 3.032865,-13.40958 l -0.476447,-0.4259 c -0.0304,-0.18544 -0.0704,-0.61399 -0.29869,-0.85732 -0.584567,-0.54887 -1.321181,-1.00438 -2.210188,-1.55341 -0.421967,-0.24519 -0.808974,-0.40516 -1.232481,-0.71785 -0.0901,-0.0665 -0.20999,-0.16809 -0.30799,-0.24753 -0.007,-0.006 -0.015,-0.0102 -0.0222,-0.016 -0.713154,-0.5686 -0.877104,-1.54973 -0.365347,-2.1916 0.287857,-0.36105 0.727997,-0.53964 1.184934,-0.524 0.355397,0.0122 0.723064,0.14191 1.035074,0.39068 0.10137,0.0802 0.239577,0.18558 0.330207,0.26355 0.399087,0.34329 0.642327,0.68254 0.978234,1.03869 0.733077,0.74454 1.339324,1.36246 2.004518,1.81023 0.34935,0.20044 0.617237,0.11859 0.882627,0.0841 0.0854,0.0631 0.372747,0.26938 0.536917,0.38137 2.5299435,-2.68425 5.8529737,-4.67215 9.71251724,-5.54848 0.89694667,-0.20365 1.79512996,-0.33899 2.68716336,-0.41289 l 0.0346,-0.6289 c 0.1979,-0.1916 0.4197771,-0.46757 0.4826567,-0.76895 0.0647,-0.79927 -0.0398,-1.65911 -0.1648467,-2.69648 -0.069,-0.48467 -0.18403,-0.88728 -0.20361,-1.41335 -0.004,-0.1079 0.002,-0.25692 0.004,-0.38085 -2.6e-4,-0.0139 -0.004,-0.0273 -0.004,-0.0413 -9e-5,-0.91209 0.6658267,-1.6515 1.4867201,-1.65158 z m -1.8613768,11.52901 c -0.5268767,0.0639 -1.05579332,0.15323 -1.58489999,0.27337 -2.89656341,0.65767 -5.40972691,2.08564 -7.37470371,4.01786 l 6.39337037,4.53205 0.0129,-0.006 c 0.21656667,0.15819 0.48280667,0.25115 0.77152334,0.25115 0.70484667,0 1.27883329,-0.55714 1.30844329,-1.25471 l 0.032,-0.016 z m 3.7258569,0 0.4413067,7.78509 0.006,0.003 c 0.0114,0.26795 0.10574,0.5334 0.2857667,0.75914 0.4394801,0.551 1.2340034,0.65312 1.7978101,0.24132 l 0.0222,0.009 6.3525527,-4.50363 c -2.396558,-2.34691 -5.5241093,-3.87841 -8.9058562,-4.29434 z m -15.0041674,7.20373 c -1.7325104,2.82245 -2.5533144,6.20783 -2.1724574,9.69042 l 7.4832144,-2.16009 0.006,-0.0253 c 0.25871,-0.0707 0.4995267,-0.22178 0.6795367,-0.44752 0.4394667,-0.55108 0.3620767,-1.34596 -0.16484,-1.80403 l 0.006,-0.032 z m 26.2380386,0.003 -5.806337,5.19609 0.004,0.016 c -0.202407,0.17594 -0.352267,0.41407 -0.416507,0.69556 -0.156787,0.68716 0.2572,1.37192 0.930684,1.55599 l 0.007,0.032 7.520948,2.16628 c 0.15931,-1.62255 0.0623,-3.30179 -0.324007,-4.98369 -0.391007,-1.70232 -1.047754,-3.2724 -1.915121,-4.6783 z m -14.2956813,5.62191 -1.4898235,1.85467 0.5338067,2.31874 2.1533468,1.03508 2.1471468,-1.03197 0.5332967,-2.31875 -1.4862101,-1.85777 z m 7.6671803,6.35831 c -0.16939,0.009 -0.3397066,0.0519 -0.5022866,0.13022 -0.6350167,0.30584 -0.9111034,1.0578 -0.6351067,1.69912 l -0.009,0.0129 3.0044543,7.25749 c 2.896192,-1.84507 5.06371,-4.60204 6.196484,-7.78459 l -7.740048,-1.30844 -0.0129,0.0155 c -0.0989,-0.0182 -0.199637,-0.0274 -0.301277,-0.0222 z m -13.0001572,0.032 c -0.0844,-0.001 -0.171,0.006 -0.25683,0.0222 l -0.0129,-0.016 -7.6733908,1.30224 c 1.1842504,3.2766 3.3979372,5.94726 6.1773607,7.73084 l 2.9729302,-7.18462 -0.0222,-0.0284 c 0.10603,-0.24634 0.13712,-0.52518 0.0729,-0.80667 -0.1372497,-0.60128 -0.6671164,-1.01129 -1.2577901,-1.01958 z m 6.4827669,3.14763 c -0.4526667,0.0166 -0.8820434,0.26869 -1.108453,0.69195 h -0.007 l -3.7728738,6.82237 c 2.6112734,0.88979 5.4950735,1.08887 8.388067,0.43201 0.5161967,-0.1172 1.0205934,-0.25762 1.5115301,-0.42219 l -3.7826969,-6.83529 h -0.0284 c -0.12649,-0.23648 -0.3274167,-0.43336 -0.5875567,-0.55863 -0.1984466,-0.0956 -0.4071267,-0.13779 -0.6128767,-0.13022 z"
         id="path5261" />
      <text
         id="text5265"
         y="-153.976"
         x="90.483002"
         style="font-style:normal;font-weight:normal;font-size:10.58333302px;line-height:1.25;font-family:sans-serif;letter-spacing:0px;word-spacing:0px;fill:#000000;fill-opacity:1;stroke:none;stroke-width:0.26458332"
         xml:space="preserve"><tspan
           style="fill:#ffffff;stroke-width:0.26458332"
           y="-153.976"
           x="90.483002"
           id="tspan5263">master</tspan></text>
    </g>
  </g>
</svg>
